<svg xmlns="http://www.w3.org/2000/svg" xmlns:xlink="http://www.w3.org/1999/xlink" width="220" zoomAndPan="magnify" viewBox="0 0 165 82.499998" height="110" preserveAspectRatio="xMidYMid meet" version="1.0"><defs><g><g id="id1"/></g><clipPath id="id2"><path d="M 0.496094 0 L 164.503906 0 L 164.503906 82.003906 L 0.496094 82.003906 Z M 0.496094 0 " clip-rule="nonzero"/></clipPath><clipPath id="id3"><path d="M 14 27.5 L 38 27.5 L 38 54 L 14 54 Z M 14 27.5 " clip-rule="nonzero"/></clipPath><clipPath id="id4"><path d="M 8.699219 27.5 L 33 27.5 L 33 54.140625 L 8.699219 54.140625 Z M 8.699219 27.5 " clip-rule="nonzero"/></clipPath><clipPath id="id5"><path d="M 108 27.5 L 118 27.5 L 118 48 L 108 48 Z M 108 27.5 " clip-rule="nonzero"/></clipPath><clipPath id="id6"><path d="M 119 27.5 L 129 27.5 L 129 48 L 119 48 Z M 119 27.5 " clip-rule="nonzero"/></clipPath><clipPath id="id7"><path d="M 141 27.5 L 144 27.5 L 144 48 L 141 48 Z M 141 27.5 " clip-rule="nonzero"/></clipPath><clipPath id="id8"><path d="M 145 27.5 L 156.300781 27.5 L 156.300781 49 L 145 49 Z M 145 27.5 " clip-rule="nonzero"/></clipPath></defs><g clip-path="url(#id2)"><path fill="rgb(100%, 100%, 100%)" d="M 0.496094 0 L 164.503906 0 L 164.503906 89.457031 L 0.496094 89.457031 Z M 0.496094 0 " fill-opacity="1" fill-rule="nonzero"/><path fill="rgb(100%, 100%, 100%)" d="M 0.496094 0 L 164.503906 0 L 164.503906 82.003906 L 0.496094 82.003906 Z M 0.496094 0 " fill-opacity="1" fill-rule="nonzero"/><path fill="rgb(100%, 100%, 100%)" d="M 0.496094 0 L 164.503906 0 L 164.503906 82.003906 L 0.496094 82.003906 Z M 0.496094 0 " fill-opacity="1" fill-rule="nonzero"/><path fill="rgb(100%, 100%, 100%)" d="M 0.496094 0 L 164.503906 0 L 164.503906 82.003906 L 0.496094 82.003906 Z M 0.496094 0 " fill-opacity="1" fill-rule="nonzero"/></g><g clip-path="url(#id3)"><path fill="rgb(19.999695%, 59.999084%, 79.998779%)" d="M 22.609375 47.414062 L 16.742188 44.898438 M 16.742188 44.898438 L 14.117188 43.773438 L 14.117188 38.132812 L 37.945312 27.835938 L 37.945312 34.488281 L 21.316406 40.96875 L 37.945312 47.386719 L 37.945312 53.996094 L 22.609375 47.414062 " fill-opacity="1" fill-rule="nonzero"/></g><g clip-path="url(#id4)"><path fill="rgb(79.60968%, 10.978699%, 40.779114%)" d="M 8.699219 54.125 L 8.699219 47.484375 L 25.335938 41 L 8.699219 34.582031 L 8.699219 27.976562 L 32.539062 38.203125 L 32.539062 43.855469 Z M 8.699219 54.125 " fill-opacity="1" fill-rule="nonzero"/></g><path fill="rgb(19.999695%, 59.999084%, 79.998779%)" d="M 23.242188 41.722656 L 30.738281 44.621094 L 23.679688 47.859375 L 15.917969 44.554688 " fill-opacity="1" fill-rule="nonzero"/><path fill="rgb(100%, 80.389404%, 12.548828%)" d="M 46.464844 30.285156 C 46.464844 31.136719 45.988281 31.824219 45.191406 31.824219 C 44.46875 31.824219 43.988281 31.136719 43.988281 30.285156 C 43.988281 29.429688 44.488281 28.714844 45.238281 28.714844 C 45.984375 28.714844 46.464844 29.414062 46.464844 30.285156 Z M 44.238281 47.96875 L 44.238281 34.167969 L 46.230469 34.167969 L 46.230469 47.96875 Z M 44.238281 47.96875 " fill-opacity="1" fill-rule="nonzero"/><path fill="rgb(59.999084%, 59.999084%, 59.999084%)" d="M 49.554688 37.898438 C 49.554688 36.441406 49.535156 35.304688 49.464844 34.160156 L 51.234375 34.160156 L 51.347656 36.441406 L 51.40625 36.441406 C 51.953125 35.160156 53.226562 33.875 55.042969 33.875 C 56.566406 33.875 58.925781 35.015625 58.925781 39.75 L 58.925781 47.964844 L 56.90625 47.964844 L 56.90625 40.003906 C 56.90625 37.78125 56.261719 35.925781 54.363281 35.925781 C 53.066406 35.925781 52.042969 37.097656 51.683594 38.492188 C 51.585938 38.878906 51.539062 39.269531 51.546875 39.664062 L 51.546875 47.964844 L 49.546875 47.964844 Z M 49.554688 37.898438 " fill-opacity="1" fill-rule="nonzero"/><path fill="rgb(59.999084%, 59.999084%, 59.999084%)" d="M 71.570312 45.941406 C 71.570312 49.152344 71.050781 51.046875 70.003906 52.273438 C 69.488281 52.824219 68.875 53.242188 68.175781 53.53125 C 67.472656 53.820312 66.742188 53.953125 65.984375 53.925781 C 64.667969 53.925781 63.210938 53.527344 62.324219 52.785156 L 62.824219 50.859375 C 63.769531 51.613281 64.847656 51.984375 66.0625 51.972656 C 68.105469 51.972656 69.621094 50.632812 69.621094 47.125 L 69.621094 45.613281 L 69.574219 45.613281 C 69.429688 45.953125 69.242188 46.269531 69.003906 46.554688 C 68.765625 46.839844 68.492188 47.085938 68.179688 47.292969 C 67.867188 47.5 67.535156 47.65625 67.175781 47.761719 C 66.816406 47.871094 66.453125 47.921875 66.078125 47.921875 C 63.351562 47.921875 61.394531 45.011719 61.394531 41.183594 C 61.394531 36.503906 63.828125 33.882812 66.371094 33.882812 C 68.28125 33.882812 69.304688 35.109375 69.804688 36.246094 L 69.851562 36.246094 L 69.917969 34.164062 L 71.6875 34.164062 C 71.621094 35.128906 71.597656 36.277344 71.597656 37.929688 Z M 69.570312 39.609375 C 69.585938 39.234375 69.546875 38.863281 69.457031 38.496094 C 69.097656 37.015625 68.140625 35.816406 66.667969 35.816406 C 64.757812 35.832031 63.378906 37.84375 63.378906 41.035156 C 63.378906 43.742188 64.492188 45.996094 66.632812 45.996094 C 67.878906 45.996094 68.992188 45.035156 69.402344 43.429688 C 69.507812 42.988281 69.5625 42.542969 69.558594 42.089844 Z M 69.570312 39.609375 " fill-opacity="1" fill-rule="nonzero"/><path fill="rgb(59.999084%, 59.999084%, 59.999084%)" d="M 75.996094 41.519531 C 76.042969 44.914062 77.75 46.3125 79.769531 46.3125 C 80.851562 46.351562 81.867188 46.113281 82.816406 45.597656 L 83.179688 47.394531 C 82.027344 48.011719 80.800781 48.308594 79.496094 48.277344 C 76.109375 48.277344 74.089844 45.457031 74.089844 41.292969 C 74.089844 37.125 76.03125 33.878906 79.246094 33.878906 C 82.859375 33.878906 83.777344 37.8125 83.777344 40.351562 C 83.785156 40.742188 83.761719 41.132812 83.707031 41.519531 Z M 81.859375 39.722656 C 81.882812 38.15625 81.335938 35.671875 79.089844 35.671875 C 77.042969 35.671875 76.175781 37.984375 76.019531 39.722656 Z M 81.859375 39.722656 " fill-opacity="1" fill-rule="nonzero"/><path fill="rgb(59.999084%, 59.999084%, 59.999084%)" d="M 87.046875 34.160156 L 88.523438 41.179688 C 88.820312 42.71875 89.113281 44.144531 89.320312 45.570312 L 89.386719 45.570312 C 89.636719 44.175781 90 42.683594 90.359375 41.207031 L 92.175781 34.160156 L 93.859375 34.160156 L 95.5625 41.0625 C 95.972656 42.71875 96.289062 44.175781 96.53125 45.558594 L 96.597656 45.558594 C 96.78125 44.160156 97.078125 42.703125 97.441406 41.0625 L 99.007812 34.132812 L 100.984375 34.132812 L 97.441406 47.933594 L 95.621094 47.933594 L 93.941406 41.34375 C 93.554688 39.804688 93.238281 38.433594 92.972656 36.808594 L 92.925781 36.808594 C 92.652344 38.460938 92.3125 39.890625 91.925781 41.371094 L 90.152344 47.933594 L 88.335938 47.933594 L 85.019531 34.132812 Z M 87.046875 34.160156 " fill-opacity="1" fill-rule="nonzero"/><path fill="rgb(59.999084%, 59.999084%, 59.999084%)" d="M 105.203125 30.285156 C 105.203125 31.136719 104.722656 31.824219 103.929688 31.824219 C 103.203125 31.824219 102.722656 31.136719 102.722656 30.285156 C 102.722656 29.429688 103.226562 28.714844 103.976562 28.714844 C 104.726562 28.714844 105.203125 29.414062 105.203125 30.285156 Z M 102.976562 47.96875 L 102.976562 34.167969 L 104.976562 34.167969 L 104.976562 47.96875 Z M 102.976562 47.96875 " fill-opacity="1" fill-rule="nonzero"/><g clip-path="url(#id5)"><path fill="rgb(59.999084%, 59.999084%, 59.999084%)" d="M 110.269531 40.492188 L 110.316406 40.492188 C 110.585938 40.007812 110.960938 39.410156 111.269531 38.925781 L 114.503906 34.160156 L 116.890625 34.160156 L 112.675781 39.839844 L 117.53125 47.96875 L 115.078125 47.96875 L 111.292969 41.351562 L 110.269531 42.773438 L 110.269531 47.96875 L 108.292969 47.96875 L 108.292969 27.71875 L 110.269531 27.71875 Z M 110.269531 40.492188 " fill-opacity="1" fill-rule="nonzero"/></g><g clip-path="url(#id6)"><path fill="rgb(59.999084%, 59.999084%, 59.999084%)" d="M 121.3125 40.492188 L 121.359375 40.492188 C 121.628906 40.007812 122.003906 39.410156 122.3125 38.925781 L 125.546875 34.160156 L 127.933594 34.160156 L 123.71875 39.839844 L 128.574219 47.96875 L 126.117188 47.96875 L 122.335938 41.351562 L 121.3125 42.773438 L 121.3125 47.96875 L 119.335938 47.96875 L 119.335938 27.71875 L 121.3125 27.71875 Z M 121.3125 40.492188 " fill-opacity="1" fill-rule="nonzero"/></g><path fill="rgb(59.999084%, 59.999084%, 59.999084%)" d="M 131.105469 41.519531 C 131.152344 44.914062 132.855469 46.3125 134.875 46.3125 C 135.957031 46.351562 136.972656 46.113281 137.921875 45.597656 L 138.285156 47.394531 C 137.136719 48.011719 135.910156 48.308594 134.605469 48.277344 C 131.21875 48.277344 129.199219 45.457031 129.199219 41.292969 C 129.199219 37.125 131.140625 33.878906 134.355469 33.878906 C 137.964844 33.878906 138.886719 37.8125 138.886719 40.351562 C 138.894531 40.742188 138.871094 41.132812 138.816406 41.519531 Z M 136.964844 39.722656 C 136.988281 38.15625 136.445312 35.671875 134.195312 35.671875 C 132.152344 35.671875 131.285156 37.984375 131.128906 39.722656 Z M 136.964844 39.722656 " fill-opacity="1" fill-rule="nonzero"/><g clip-path="url(#id7)"><path fill="rgb(59.999084%, 59.999084%, 59.999084%)" d="M 141.375 27.71875 L 143.375 27.71875 L 143.375 47.96875 L 141.375 47.96875 Z M 141.375 27.71875 " fill-opacity="1" fill-rule="nonzero"/></g><g clip-path="url(#id8)"><path fill="rgb(59.999084%, 59.999084%, 59.999084%)" d="M 156.210938 27.71875 L 156.210938 44.40625 C 156.210938 45.632812 156.257812 47.027344 156.300781 47.96875 L 154.53125 47.96875 L 154.441406 45.574219 L 154.375 45.574219 C 153.78125 47.113281 152.464844 48.28125 150.667969 48.28125 C 148.011719 48.28125 145.941406 45.460938 145.941406 41.265625 C 145.917969 36.675781 148.207031 33.886719 150.875 33.886719 C 151.585938 33.871094 152.242188 34.054688 152.847656 34.429688 C 153.449219 34.808594 153.898438 35.320312 154.191406 35.964844 L 154.234375 35.964844 L 154.234375 27.71875 Z M 154.234375 39.78125 C 154.238281 39.425781 154.207031 39.074219 154.144531 38.726562 C 153.851562 37.160156 152.757812 35.835938 151.257812 35.835938 C 149.195312 35.835938 147.964844 38.117188 147.964844 41.140625 C 147.964844 43.9375 149.078125 46.242188 151.214844 46.242188 C 152.554688 46.242188 153.78125 45.105469 154.128906 43.25 C 154.195312 42.890625 154.226562 42.53125 154.21875 42.167969 Z M 154.234375 39.78125 " fill-opacity="1" fill-rule="nonzero"/></g><g fill="rgb(100%, 80.389404%, 1.959229%)" fill-opacity="1"><g transform="translate(42.418847, 31.648297)"><g><path d="M 4.765625 -1.15625 C 4.765625 -0.945312 4.722656 -0.75 4.640625 -0.5625 C 4.566406 -0.375 4.460938 -0.210938 4.328125 -0.078125 C 4.191406 0.0546875 4.023438 0.160156 3.828125 0.234375 C 3.640625 0.316406 3.441406 0.359375 3.234375 0.359375 C 3.015625 0.359375 2.8125 0.316406 2.625 0.234375 C 2.4375 0.160156 2.273438 0.0546875 2.140625 -0.078125 C 2.015625 -0.210938 1.910156 -0.375 1.828125 -0.5625 C 1.742188 -0.75 1.703125 -0.945312 1.703125 -1.15625 C 1.703125 -1.363281 1.742188 -1.5625 1.828125 -1.75 C 1.910156 -1.9375 2.015625 -2.097656 2.140625 -2.234375 C 2.273438 -2.367188 2.4375 -2.472656 2.625 -2.546875 C 2.8125 -2.628906 3.015625 -2.671875 3.234375 -2.671875 C 3.441406 -2.671875 3.640625 -2.628906 3.828125 -2.546875 C 4.023438 -2.472656 4.191406 -2.367188 4.328125 -2.234375 C 4.460938 -2.097656 4.566406 -1.9375 4.640625 -1.75 C 4.722656 -1.5625 4.765625 -1.363281 4.765625 -1.15625 Z M 4.765625 -1.15625 "/></g></g></g><g fill="rgb(59.999084%, 59.999084%, 59.999084%)" fill-opacity="1"><g transform="translate(100.973722, 31.648297)"><g><path d="M 4.765625 -1.15625 C 4.765625 -0.945312 4.722656 -0.75 4.640625 -0.5625 C 4.566406 -0.375 4.460938 -0.210938 4.328125 -0.078125 C 4.191406 0.0546875 4.023438 0.160156 3.828125 0.234375 C 3.640625 0.316406 3.441406 0.359375 3.234375 0.359375 C 3.015625 0.359375 2.8125 0.316406 2.625 0.234375 C 2.4375 0.160156 2.273438 0.0546875 2.140625 -0.078125 C 2.015625 -0.210938 1.910156 -0.375 1.828125 -0.5625 C 1.742188 -0.75 1.703125 -0.945312 1.703125 -1.15625 C 1.703125 -1.363281 1.742188 -1.5625 1.828125 -1.75 C 1.910156 -1.9375 2.015625 -2.097656 2.140625 -2.234375 C 2.273438 -2.367188 2.4375 -2.472656 2.625 -2.546875 C 2.8125 -2.628906 3.015625 -2.671875 3.234375 -2.671875 C 3.441406 -2.671875 3.640625 -2.628906 3.828125 -2.546875 C 4.023438 -2.472656 4.191406 -2.367188 4.328125 -2.234375 C 4.460938 -2.097656 4.566406 -1.9375 4.640625 -1.75 C 4.722656 -1.5625 4.765625 -1.363281 4.765625 -1.15625 Z M 4.765625 -1.15625 "/></g></g></g></svg>