<svg xmlns="http://www.w3.org/2000/svg" width="165" viewBox="0 0 165 82.5" height="82.5" version="1.0"><defs><clipPath id="a"><path d="M 0.496094 0 L 164.503906 0 L 164.503906 82.003906 L 0.496094 82.003906 Z M 0.496094 0"/></clipPath><clipPath id="b"><path d="M 8.699219 31.542969 L 14 31.542969 L 14 50 L 8.699219 50 Z M 8.699219 31.542969"/></clipPath><clipPath id="c"><path d="M 17 31.542969 L 35 31.542969 L 35 50 L 17 50 Z M 17 31.542969"/></clipPath><clipPath id="d"><path d="M 38 31.542969 L 56 31.542969 L 56 50 L 38 50 Z M 38 31.542969"/></clipPath><clipPath id="e"><path d="M 79 31.542969 L 96 31.542969 L 96 50 L 79 50 Z M 79 31.542969"/></clipPath><clipPath id="f"><path d="M 97 31.542969 L 112 31.542969 L 112 50 L 97 50 Z M 97 31.542969"/></clipPath><clipPath id="g"><path d="M 112 31.542969 L 134 31.542969 L 134 50 L 112 50 Z M 112 31.542969"/></clipPath><clipPath id="h"><path d="M 135 31.542969 L 156.300781 31.542969 L 156.300781 50 L 135 50 Z M 135 31.542969"/></clipPath><clipPath id="i"><path d="M 58 31.542969 L 78 31.542969 L 78 50.179688 L 58 50.179688 Z M 58 31.542969"/></clipPath><clipPath id="j"><path d="M 58 31.542969 L 79 31.542969 L 79 50.179688 L 58 50.179688 Z M 58 31.542969"/></clipPath><clipPath id="k"><path d="M 66 31.542969 L 78 31.542969 L 78 41 L 66 41 Z M 66 31.542969"/></clipPath></defs><g clip-path="url(#a)" fill="#FFF"><path d="M 0.496094 0 L 164.503906 0 L 164.503906 350.375 L 0.496094 350.375 Z M 0.496094 0"/><path d="M 0.496094 0 L 164.503906 0 L 164.503906 82.003906 L 0.496094 82.003906 Z M 0.496094 0"/><path d="M 0.496094 0 L 164.503906 0 L 164.503906 82.003906 L 0.496094 82.003906 Z M 0.496094 0"/></g><g clip-path="url(#b)"><path d="M 8.734375 31.902344 L 13.863281 31.902344 L 13.863281 49.773438 L 8.734375 49.773438 Z M 8.734375 31.902344"/></g><g clip-path="url(#c)"><path d="M 34.761719 31.902344 L 34.761719 49.773438 L 30.542969 49.773438 L 22.539062 40.25 L 22.539062 49.773438 L 17.515625 49.773438 L 17.515625 31.902344 L 21.738281 31.902344 L 29.738281 41.425781 L 29.738281 31.902344 Z M 34.761719 31.902344"/></g><g clip-path="url(#d)"><path d="M 55.636719 31.902344 L 55.636719 49.773438 L 51.414062 49.773438 L 43.414062 40.25 L 43.414062 49.773438 L 38.386719 49.773438 L 38.386719 31.902344 L 42.609375 31.902344 L 50.613281 41.425781 L 50.613281 31.902344 Z M 55.636719 31.902344"/></g><g clip-path="url(#e)"><path d="M 84.769531 35.910156 L 79.203125 35.910156 L 79.203125 31.902344 L 95.441406 31.902344 L 95.441406 35.910156 L 89.898438 35.910156 L 89.898438 49.773438 L 84.769531 49.773438 Z M 84.769531 35.910156"/></g><g clip-path="url(#f)"><path d="M 111.910156 45.867188 L 111.910156 49.773438 L 97.355469 49.773438 L 97.355469 31.902344 L 111.574219 31.902344 L 111.574219 35.808594 L 102.433594 35.808594 L 102.433594 38.820312 L 110.484375 38.820312 L 110.484375 42.597656 L 102.433594 42.597656 L 102.433594 45.867188 Z M 111.910156 45.867188"/></g><g clip-path="url(#g)"><path d="M 126.90625 46.300781 L 119.238281 46.300781 L 117.816406 49.773438 L 112.582031 49.773438 L 120.585938 31.902344 L 125.636719 31.902344 L 133.664062 49.773438 L 128.328125 49.773438 Z M 125.402344 42.574219 L 123.074219 36.855469 L 120.742188 42.574219 Z M 125.402344 42.574219"/></g><g clip-path="url(#h)"><path d="M 151.480469 49.773438 L 151.429688 40.300781 L 146.769531 48.011719 L 144.488281 48.011719 L 139.855469 40.554688 L 139.855469 49.773438 L 135.113281 49.773438 L 135.113281 31.902344 L 139.335938 31.902344 L 145.707031 42.214844 L 151.921875 31.902344 L 156.144531 31.902344 L 156.195312 49.773438 Z M 151.480469 49.773438"/></g><g clip-path="url(#i)"><path fill="#EB2F5B" d="M 58.964844 50.128906 L 62.160156 50.128906 L 77.839844 31.542969 L 74.667969 31.542969 Z M 58.964844 50.128906" fill-rule="evenodd"/></g><g clip-path="url(#j)"><path d="M 68.402344 50.128906 C 66.488281 50.128906 64.777344 49.722656 63.25 48.929688 C 61.722656 48.140625 60.503906 47.015625 59.648438 45.609375 C 58.769531 44.207031 58.328125 42.597656 58.328125 40.835938 C 58.328125 39.074219 58.769531 37.46875 59.648438 36.0625 C 60.503906 34.660156 61.722656 33.535156 63.25 32.742188 C 64.777344 31.953125 66.488281 31.542969 68.402344 31.542969 C 70.320312 31.542969 72.054688 31.953125 73.582031 32.742188 C 75.109375 33.535156 76.300781 34.660156 77.183594 36.0625 C 78.035156 37.46875 78.476562 39.074219 78.476562 40.835938 C 78.476562 42.597656 78.035156 44.207031 77.183594 45.609375 C 76.300781 47.015625 75.109375 48.140625 73.582031 48.929688 C 72.054688 49.722656 70.320312 50.128906 68.402344 50.128906 Z M 68.402344 45.941406 C 69.308594 45.941406 70.136719 45.738281 70.890625 45.304688 C 71.640625 44.871094 72.210938 44.285156 72.652344 43.492188 C 73.089844 42.726562 73.296875 41.832031 73.296875 40.835938 C 73.296875 39.839844 73.089844 38.949219 72.652344 38.15625 C 72.210938 37.390625 71.640625 36.804688 70.890625 36.371094 C 70.136719 35.933594 69.308594 35.730469 68.402344 35.730469 C 67.496094 35.730469 66.667969 35.933594 65.917969 36.371094 C 65.167969 36.804688 64.597656 37.390625 64.15625 38.15625 C 63.714844 38.949219 63.507812 39.839844 63.507812 40.835938 C 63.507812 41.832031 63.714844 42.726562 64.15625 43.492188 C 64.597656 44.285156 65.167969 44.871094 65.917969 45.304688 C 66.667969 45.738281 67.496094 45.941406 68.402344 45.941406 Z M 68.402344 45.941406"/></g><g clip-path="url(#k)"><path fill="#EB2F5B" d="M 66.816406 40.835938 L 70 40.835938 L 77.839844 31.542969 L 74.667969 31.542969 Z M 66.816406 40.835938" fill-rule="evenodd"/></g></svg>