<svg xmlns="http://www.w3.org/2000/svg" xmlns:xlink="http://www.w3.org/1999/xlink" width="220" zoomAndPan="magnify" viewBox="0 0 165 82.499998" height="110" preserveAspectRatio="xMidYMid meet" version="1.0"><defs><clipPath id="id1"><path d="M 0.496094 0 L 164.503906 0 L 164.503906 82.003906 L 0.496094 82.003906 Z M 0.496094 0 " clip-rule="nonzero"/></clipPath></defs><g clip-path="url(#id1)"><path fill="rgb(100%, 100%, 100%)" d="M 0.496094 0 L 164.503906 0 L 164.503906 89.457031 L 0.496094 89.457031 Z M 0.496094 0 " fill-opacity="1" fill-rule="nonzero"/><path fill="rgb(100%, 100%, 100%)" d="M 0.496094 0 L 164.503906 0 L 164.503906 82.003906 L 0.496094 82.003906 Z M 0.496094 0 " fill-opacity="1" fill-rule="nonzero"/><path fill="rgb(100%, 100%, 100%)" d="M 0.496094 0 L 164.503906 0 L 164.503906 82.003906 L 0.496094 82.003906 Z M 0.496094 0 " fill-opacity="1" fill-rule="nonzero"/><path fill="rgb(100%, 100%, 100%)" d="M 0.496094 0 L 164.503906 0 L 164.503906 82.003906 L 0.496094 82.003906 Z M 0.496094 0 " fill-opacity="1" fill-rule="nonzero"/></g><path fill="rgb(3.529358%, 39.219666%, 74.508667%)" d="M 32.96875 44.675781 C 32.683594 44.367188 32.328125 44.125 31.949219 43.972656 C 31.753906 43.898438 31.554688 43.839844 31.347656 43.808594 C 31.25 43.789062 31.140625 43.785156 31.042969 43.773438 C 30.9375 43.773438 30.835938 43.761719 30.730469 43.769531 C 30.335938 43.777344 29.960938 43.84375 29.632812 43.925781 C 29.636719 43.949219 29.636719 43.976562 29.640625 44 C 29.804688 44.117188 29.988281 44.25 30.179688 44.40625 C 30.375 44.570312 30.582031 44.757812 30.785156 44.972656 C 30.992188 45.183594 31.191406 45.425781 31.382812 45.6875 C 31.570312 45.949219 31.742188 46.234375 31.894531 46.535156 C 32.042969 46.839844 32.175781 47.15625 32.265625 47.480469 C 32.378906 47.867188 32.449219 48.257812 32.476562 48.636719 C 33.039062 47.597656 33.382812 46.476562 33.449219 45.320312 C 33.316406 45.097656 33.15625 44.871094 32.96875 44.675781 Z M 29.667969 41.210938 C 29.488281 41.3125 29.320312 41.417969 29.171875 41.527344 C 29.667969 41.492188 30.25 41.492188 30.875 41.59375 C 31.515625 41.695312 32.199219 41.929688 32.796875 42.300781 C 32.863281 42.347656 32.933594 42.394531 33 42.441406 C 32.753906 41.792969 32.40625 41.144531 31.949219 40.515625 C 31.558594 40.554688 31.15625 40.625 30.769531 40.742188 C 30.371094 40.863281 29.996094 41.023438 29.667969 41.210938 Z M 21.347656 52.621094 C 20.671875 52.875 19.996094 53.035156 19.402344 53.121094 C 19.253906 53.144531 19.109375 53.171875 18.976562 53.183594 C 18.851562 53.195312 18.730469 53.210938 18.617188 53.222656 C 18.230469 53.050781 17.851562 52.859375 17.472656 52.640625 C 16.808594 52.230469 16.203125 51.789062 15.648438 51.328125 C 15.847656 51.351562 16.050781 51.367188 16.253906 51.378906 C 16.382812 51.382812 16.515625 51.382812 16.652344 51.386719 C 16.785156 51.390625 16.914062 51.382812 17.046875 51.382812 L 17.148438 51.378906 L 17.214844 51.378906 C 17.207031 51.378906 17.238281 51.375 17.234375 51.375 L 17.257812 51.375 L 17.632812 51.351562 L 17.726562 51.34375 L 17.828125 51.332031 L 18.238281 51.289062 C 18.367188 51.265625 18.503906 51.246094 18.632812 51.226562 C 18.765625 51.207031 18.894531 51.179688 19.027344 51.15625 C 19.160156 51.128906 19.289062 51.097656 19.417969 51.066406 C 19.933594 50.941406 20.4375 50.78125 20.914062 50.585938 C 21.867188 50.199219 22.695312 49.679688 23.347656 49.152344 C 23.753906 48.824219 24.09375 48.492188 24.367188 48.191406 C 24.585938 48.238281 24.8125 48.269531 25.035156 48.28125 C 24.949219 48.78125 24.796875 49.339844 24.523438 49.878906 C 24.507812 49.917969 24.488281 49.957031 24.46875 49.992188 C 24.453125 50.03125 24.425781 50.066406 24.40625 50.105469 C 24.367188 50.179688 24.324219 50.253906 24.28125 50.328125 C 24.234375 50.398438 24.183594 50.472656 24.136719 50.542969 C 24.109375 50.578125 24.085938 50.617188 24.0625 50.652344 L 23.980469 50.757812 C 23.769531 51.042969 23.511719 51.292969 23.242188 51.535156 C 22.691406 52 22.023438 52.367188 21.347656 52.621094 Z M 16.242188 49.976562 C 16.351562 49.96875 16.464844 49.960938 16.578125 49.957031 C 16.691406 49.949219 16.804688 49.933594 16.917969 49.921875 L 17.074219 49.90625 L 17.257812 49.875 L 17.445312 49.847656 L 17.539062 49.835938 C 17.566406 49.832031 17.59375 49.824219 17.621094 49.820312 L 17.949219 49.753906 C 18.058594 49.726562 18.171875 49.699219 18.28125 49.675781 C 18.394531 49.652344 18.503906 49.613281 18.613281 49.582031 C 18.722656 49.554688 18.828125 49.519531 18.933594 49.484375 C 19.359375 49.339844 19.765625 49.171875 20.140625 48.980469 C 20.894531 48.601562 21.519531 48.128906 21.996094 47.671875 C 22.144531 47.527344 22.28125 47.386719 22.40625 47.25 C 22.128906 47.03125 21.871094 46.785156 21.632812 46.511719 C 21.617188 46.519531 21.597656 46.523438 21.582031 46.53125 C 21.359375 46.625 21.09375 46.726562 20.78125 46.828125 C 20.464844 46.925781 20.113281 47.035156 19.714844 47.113281 C 19.320312 47.199219 18.886719 47.273438 18.425781 47.308594 C 18.195312 47.332031 17.957031 47.335938 17.710938 47.34375 C 17.589844 47.34375 17.464844 47.339844 17.339844 47.335938 C 17.277344 47.332031 17.214844 47.332031 17.152344 47.328125 C 17.089844 47.324219 17.027344 47.320312 16.964844 47.3125 C 16.457031 47.285156 15.941406 47.183594 15.425781 47.050781 C 15.296875 47.011719 15.171875 46.972656 15.042969 46.933594 L 14.945312 46.90625 L 14.851562 46.871094 L 14.476562 46.722656 L 14.386719 46.6875 L 14.292969 46.644531 L 13.929688 46.46875 C 13.808594 46.414062 13.695312 46.34375 13.578125 46.277344 C 13.464844 46.210938 13.347656 46.144531 13.234375 46.074219 C 13.125 46 13.019531 45.925781 12.910156 45.847656 C 12.804688 45.773438 12.695312 45.703125 12.597656 45.613281 C 12.496094 45.53125 12.398438 45.449219 12.296875 45.371094 C 12.25 45.328125 12.199219 45.289062 12.152344 45.246094 L 12.015625 45.117188 C 11.921875 45.027344 11.832031 44.941406 11.742188 44.855469 C 11.699219 44.8125 11.652344 44.769531 11.613281 44.722656 C 11.570312 44.679688 11.53125 44.632812 11.488281 44.585938 C 11.40625 44.496094 11.328125 44.40625 11.25 44.316406 C 11.246094 44.316406 11.246094 44.316406 11.246094 44.3125 C 11.683594 46.191406 12.539062 47.980469 13.890625 49.585938 C 14.210938 49.726562 14.566406 49.835938 14.957031 49.902344 C 15.363281 49.96875 15.796875 49.992188 16.242188 49.976562 Z M 18.296875 37.558594 C 17.519531 36.691406 16.824219 35.613281 16.417969 34.429688 C 16 33.25 15.871094 31.996094 15.953125 30.863281 C 16.019531 29.917969 16.210938 29.054688 16.4375 28.308594 C 14.417969 30.414062 12.832031 32.964844 11.882812 35.664062 C 11.894531 35.714844 11.90625 35.761719 11.917969 35.808594 C 12.101562 36.503906 12.402344 37.289062 12.890625 38.015625 C 13.132812 38.382812 13.421875 38.734375 13.746094 39.050781 C 13.90625 39.214844 14.085938 39.363281 14.261719 39.511719 C 14.445312 39.652344 14.632812 39.792969 14.832031 39.917969 C 15.617188 40.433594 16.503906 40.800781 17.367188 41.046875 C 18.234375 41.300781 19.078125 41.445312 19.8125 41.542969 C 19.945312 41.5625 20.070312 41.578125 20.195312 41.589844 C 20.269531 40.953125 20.433594 40.285156 20.699219 39.609375 C 19.929688 39.097656 19.074219 38.425781 18.296875 37.558594 Z M 30.917969 49.476562 C 30.863281 49.027344 30.730469 48.578125 30.523438 48.175781 C 30.425781 47.972656 30.300781 47.785156 30.171875 47.609375 C 30.035156 47.433594 29.894531 47.269531 29.738281 47.125 C 29.585938 46.976562 29.429688 46.84375 29.265625 46.734375 C 29.164062 46.65625 29.058594 46.589844 28.957031 46.527344 C 29.011719 46.683594 29.0625 46.847656 29.113281 47.027344 C 29.152344 47.164062 29.183594 47.308594 29.21875 47.457031 C 29.25 47.609375 29.28125 47.761719 29.304688 47.925781 C 29.359375 48.246094 29.390625 48.589844 29.402344 48.945312 C 29.402344 49.125 29.40625 49.304688 29.394531 49.488281 C 29.386719 49.671875 29.363281 49.855469 29.34375 50.042969 C 29.289062 50.410156 29.21875 50.78125 29.101562 51.140625 C 28.925781 51.695312 28.679688 52.214844 28.390625 52.675781 C 29.339844 52.140625 30.199219 51.480469 30.925781 50.726562 C 30.964844 50.347656 30.980469 49.917969 30.917969 49.476562 Z M 28.027344 22.835938 C 27.863281 22.949219 27.699219 23.074219 27.519531 23.207031 C 27.34375 23.34375 27.160156 23.484375 26.972656 23.636719 C 26.597656 23.941406 26.210938 24.292969 25.824219 24.679688 C 25.441406 25.074219 25.0625 25.507812 24.714844 25.984375 C 24.367188 26.464844 24.050781 26.984375 23.792969 27.539062 C 23.539062 28.097656 23.339844 28.6875 23.214844 29.289062 C 22.964844 30.496094 23.03125 31.75 23.300781 32.878906 C 23.550781 33.941406 23.964844 34.894531 24.390625 35.691406 C 25.148438 35.386719 25.953125 35.234375 26.769531 35.210938 C 26.769531 34.726562 26.796875 34.140625 26.882812 33.488281 C 26.949219 33.015625 27.046875 32.503906 27.1875 31.980469 C 27.21875 31.847656 27.265625 31.714844 27.304688 31.582031 C 27.324219 31.511719 27.34375 31.445312 27.367188 31.378906 C 27.386719 31.3125 27.414062 31.242188 27.433594 31.175781 C 27.484375 31.042969 27.53125 30.90625 27.582031 30.769531 C 27.636719 30.632812 27.695312 30.496094 27.753906 30.359375 C 27.78125 30.292969 27.808594 30.222656 27.839844 30.152344 C 27.875 30.085938 27.90625 30.019531 27.941406 29.953125 C 28.007812 29.816406 28.070312 29.679688 28.144531 29.542969 C 28.296875 29.277344 28.4375 29.003906 28.613281 28.746094 C 28.699219 28.617188 28.78125 28.484375 28.871094 28.355469 C 28.964844 28.230469 29.058594 28.105469 29.15625 27.980469 C 29.203125 27.917969 29.25 27.855469 29.296875 27.792969 L 29.453125 27.613281 L 29.757812 27.253906 C 30.609375 26.328125 31.601562 25.554688 32.59375 24.953125 C 32.71875 24.878906 32.84375 24.808594 32.964844 24.734375 C 33.027344 24.699219 33.089844 24.664062 33.148438 24.628906 C 33.210938 24.59375 33.273438 24.5625 33.335938 24.53125 C 33.585938 24.40625 33.828125 24.285156 34.0625 24.164062 C 34.550781 23.957031 35.003906 23.742188 35.441406 23.597656 C 35.578125 23.546875 35.710938 23.496094 35.839844 23.453125 C 33.582031 22.914062 30.976562 22.628906 28.035156 22.828125 C 28.03125 22.832031 28.03125 22.832031 28.027344 22.835938 Z M 36.988281 23.757812 C 36.9375 23.773438 36.886719 23.792969 36.832031 23.8125 C 36.664062 23.871094 36.488281 23.933594 36.296875 24.003906 C 36.113281 24.078125 35.917969 24.164062 35.714844 24.25 C 35.300781 24.410156 34.878906 24.632812 34.425781 24.851562 C 34.207031 24.972656 33.980469 25.101562 33.753906 25.230469 C 33.695312 25.265625 33.636719 25.292969 33.578125 25.328125 C 33.523438 25.367188 33.46875 25.402344 33.410156 25.4375 C 33.300781 25.511719 33.1875 25.585938 33.070312 25.660156 C 32.167969 26.265625 31.28125 27.027344 30.546875 27.902344 C 30.195312 28.351562 29.847656 28.808594 29.578125 29.296875 C 29.429688 29.535156 29.3125 29.789062 29.1875 30.03125 C 29.125 30.152344 29.078125 30.28125 29.023438 30.402344 C 28.96875 30.527344 28.914062 30.648438 28.871094 30.777344 C 28.824219 30.902344 28.78125 31.023438 28.734375 31.148438 C 28.695312 31.269531 28.660156 31.394531 28.621094 31.515625 C 28.601562 31.578125 28.582031 31.636719 28.566406 31.699219 C 28.546875 31.761719 28.535156 31.820312 28.519531 31.882812 C 28.488281 32.003906 28.457031 32.121094 28.429688 32.242188 C 28.332031 32.71875 28.261719 33.171875 28.222656 33.59375 C 28.164062 34.261719 28.167969 34.839844 28.199219 35.296875 C 29.167969 35.4375 30.121094 35.746094 31 36.183594 C 31.894531 33.992188 35.644531 26.855469 46.078125 28.765625 C 45.167969 27.9375 42.074219 25.238281 36.988281 23.757812 Z M 11.324219 42.945312 C 11.457031 43.101562 11.597656 43.253906 11.734375 43.417969 C 11.769531 43.457031 11.808594 43.496094 11.839844 43.535156 C 11.878906 43.574219 11.917969 43.613281 11.957031 43.648438 C 12.035156 43.726562 12.113281 43.800781 12.1875 43.878906 C 12.824219 44.480469 13.582031 45.03125 14.421875 45.382812 C 14.632812 45.464844 14.839844 45.558594 15.058594 45.617188 L 15.21875 45.667969 C 15.273438 45.683594 15.324219 45.699219 15.378906 45.710938 C 15.488281 45.738281 15.597656 45.761719 15.707031 45.789062 C 16.140625 45.871094 16.574219 45.929688 17 45.925781 C 17.054688 45.929688 17.105469 45.929688 17.15625 45.929688 C 17.210938 45.929688 17.261719 45.925781 17.316406 45.925781 C 17.417969 45.921875 17.523438 45.917969 17.625 45.910156 C 17.828125 45.886719 18.027344 45.875 18.222656 45.839844 C 18.609375 45.789062 18.972656 45.699219 19.300781 45.609375 C 19.632812 45.519531 19.929688 45.410156 20.1875 45.308594 C 20.390625 45.230469 20.566406 45.152344 20.71875 45.082031 C 20.460938 44.507812 20.277344 43.875 20.195312 43.199219 C 20.003906 43.167969 19.800781 43.128906 19.589844 43.085938 C 18.816406 42.929688 17.90625 42.714844 16.960938 42.375 C 16.015625 42.035156 15.035156 41.554688 14.164062 40.90625 C 13.289062 40.261719 12.546875 39.429688 12.046875 38.550781 C 11.78125 38.085938 11.578125 37.621094 11.421875 37.164062 C 10.96875 38.921875 10.792969 40.710938 10.949219 42.460938 C 11.070312 42.621094 11.195312 42.78125 11.324219 42.945312 Z M 26.046875 53.578125 C 26.34375 53.234375 26.660156 52.816406 26.910156 52.332031 C 27.167969 51.855469 27.351562 51.316406 27.4375 50.769531 C 27.488281 50.496094 27.5 50.21875 27.5 49.949219 C 27.496094 49.8125 27.496094 49.679688 27.480469 49.546875 C 27.472656 49.484375 27.46875 49.414062 27.457031 49.351562 C 27.449219 49.285156 27.4375 49.222656 27.429688 49.15625 C 27.382812 48.902344 27.328125 48.65625 27.253906 48.429688 C 27.21875 48.308594 27.179688 48.195312 27.136719 48.085938 C 27.109375 48.210938 27.082031 48.34375 27.050781 48.480469 C 26.960938 48.824219 26.851562 49.195312 26.691406 49.574219 C 26.539062 49.953125 26.351562 50.34375 26.109375 50.722656 C 25.648438 51.488281 24.96875 52.195312 24.203125 52.734375 C 23.429688 53.265625 22.570312 53.617188 21.761719 53.832031 C 21.546875 53.890625 21.335938 53.9375 21.128906 53.980469 C 22.785156 54.261719 24.425781 54.140625 25.941406 53.707031 C 25.976562 53.664062 26.011719 53.621094 26.046875 53.578125 Z M 17.488281 28.121094 C 17.273438 28.921875 17.09375 29.875 17.09375 30.886719 C 17.085938 31.894531 17.269531 32.953125 17.683594 33.917969 C 18.085938 34.886719 18.71875 35.746094 19.425781 36.441406 C 20.101562 37.113281 20.847656 37.632812 21.523438 38.027344 C 22.011719 37.308594 22.585938 36.746094 23.21875 36.3125 C 22.785156 35.425781 22.375 34.359375 22.144531 33.160156 C 22.082031 32.839844 22.03125 32.511719 22 32.175781 C 21.980469 32.007812 21.976562 31.839844 21.964844 31.667969 C 21.960938 31.496094 21.949219 31.328125 21.957031 31.15625 C 21.960938 30.464844 22.046875 29.769531 22.214844 29.089844 C 22.378906 28.410156 22.632812 27.757812 22.941406 27.152344 C 23.253906 26.542969 23.625 25.988281 24.023438 25.484375 C 24.421875 24.980469 24.847656 24.535156 25.273438 24.136719 C 25.699219 23.742188 26.125 23.390625 26.527344 23.085938 C 26.589844 23.039062 26.652344 22.996094 26.71875 22.949219 C 26.636719 22.957031 26.554688 22.964844 26.472656 22.976562 C 23.304688 23.363281 20.332031 24.839844 17.847656 26.972656 C 17.726562 27.3125 17.601562 27.695312 17.488281 28.121094 Z M 17.488281 28.121094 " fill-opacity="1" fill-rule="nonzero"/><path fill="rgb(3.529358%, 39.219666%, 74.508667%)" d="M 43.199219 55.042969 L 43.566406 55.042969 L 43.566406 60.070312 L 43.199219 60.070312 Z M 43.199219 55.042969 " fill-opacity="1" fill-rule="nonzero"/><path fill="rgb(3.529358%, 39.219666%, 74.508667%)" d="M 45.132812 54.902344 L 45.46875 54.902344 L 45.46875 60.070312 L 45.132812 60.070312 Z M 45.132812 54.902344 " fill-opacity="1" fill-rule="nonzero"/><path fill="rgb(3.529358%, 39.219666%, 74.508667%)" d="M 48.101562 61.320312 L 48.101562 56.535156 L 48.285156 56.535156 C 48.316406 56.535156 48.339844 56.542969 48.363281 56.554688 C 48.382812 56.570312 48.390625 56.589844 48.394531 56.625 L 48.425781 57.171875 C 48.582031 56.957031 48.765625 56.789062 48.976562 56.664062 C 49.1875 56.539062 49.421875 56.472656 49.683594 56.472656 C 50.121094 56.472656 50.460938 56.625 50.703125 56.925781 C 50.945312 57.226562 51.070312 57.679688 51.070312 58.277344 C 51.070312 58.535156 51.035156 58.777344 50.96875 59.003906 C 50.898438 59.226562 50.800781 59.421875 50.667969 59.585938 C 50.539062 59.75 50.375 59.878906 50.183594 59.972656 C 49.996094 60.066406 49.773438 60.117188 49.523438 60.117188 C 49.28125 60.117188 49.070312 60.070312 48.894531 59.984375 C 48.71875 59.898438 48.566406 59.765625 48.4375 59.59375 L 48.4375 61.320312 Z M 49.589844 56.75 C 49.355469 56.75 49.140625 56.8125 48.949219 56.933594 C 48.757812 57.054688 48.589844 57.222656 48.4375 57.441406 L 48.4375 59.296875 C 48.574219 59.5 48.726562 59.640625 48.890625 59.726562 C 49.054688 59.808594 49.246094 59.851562 49.457031 59.851562 C 49.664062 59.851562 49.847656 59.8125 50.003906 59.738281 C 50.160156 59.660156 50.292969 59.554688 50.398438 59.417969 C 50.503906 59.277344 50.582031 59.109375 50.636719 58.917969 C 50.691406 58.726562 50.714844 58.511719 50.714844 58.28125 C 50.714844 57.753906 50.617188 57.367188 50.425781 57.121094 C 50.234375 56.875 49.953125 56.75 49.589844 56.75 Z M 49.589844 56.75 " fill-opacity="1" fill-rule="nonzero"/><path fill="rgb(3.529358%, 39.219666%, 74.508667%)" d="M 51.917969 60.070312 L 51.917969 56.539062 L 52.097656 56.539062 C 52.136719 56.539062 52.167969 56.546875 52.183594 56.5625 C 52.203125 56.582031 52.210938 56.609375 52.214844 56.648438 L 52.242188 57.394531 C 52.355469 57.109375 52.507812 56.882812 52.699219 56.722656 C 52.890625 56.558594 53.125 56.476562 53.402344 56.476562 C 53.507812 56.476562 53.605469 56.488281 53.699219 56.511719 C 53.789062 56.535156 53.871094 56.566406 53.953125 56.609375 L 53.910156 56.84375 C 53.902344 56.878906 53.878906 56.898438 53.835938 56.898438 C 53.824219 56.898438 53.804688 56.894531 53.777344 56.886719 C 53.75 56.875 53.71875 56.867188 53.679688 56.855469 C 53.640625 56.84375 53.59375 56.832031 53.535156 56.824219 C 53.476562 56.8125 53.410156 56.808594 53.339844 56.808594 C 53.070312 56.808594 52.847656 56.890625 52.675781 57.058594 C 52.503906 57.226562 52.363281 57.460938 52.257812 57.777344 L 52.257812 60.074219 L 51.917969 60.074219 Z M 51.917969 60.070312 " fill-opacity="1" fill-rule="nonzero"/><path fill="rgb(3.529358%, 39.219666%, 74.508667%)" d="M 55.339844 55.316406 C 55.339844 55.359375 55.332031 55.398438 55.3125 55.4375 C 55.296875 55.472656 55.269531 55.503906 55.242188 55.53125 C 55.214844 55.5625 55.183594 55.585938 55.144531 55.601562 C 55.105469 55.617188 55.066406 55.625 55.023438 55.625 C 54.980469 55.625 54.9375 55.617188 54.902344 55.601562 C 54.863281 55.585938 54.828125 55.5625 54.800781 55.53125 C 54.773438 55.503906 54.75 55.472656 54.734375 55.4375 C 54.71875 55.398438 54.707031 55.359375 54.707031 55.316406 C 54.707031 55.273438 54.714844 55.234375 54.734375 55.195312 C 54.753906 55.15625 54.773438 55.121094 54.800781 55.09375 C 54.828125 55.066406 54.863281 55.042969 54.902344 55.027344 C 54.9375 55.011719 54.980469 55 55.023438 55 C 55.066406 55 55.105469 55.007812 55.144531 55.027344 C 55.183594 55.042969 55.214844 55.066406 55.242188 55.09375 C 55.269531 55.121094 55.296875 55.15625 55.3125 55.195312 C 55.332031 55.234375 55.339844 55.273438 55.339844 55.316406 Z M 55.191406 56.539062 L 55.191406 60.070312 L 54.851562 60.070312 L 54.851562 56.539062 Z M 55.191406 56.539062 " fill-opacity="1" fill-rule="nonzero"/><path fill="rgb(3.529358%, 39.219666%, 74.508667%)" d="M 56.445312 60.070312 L 56.445312 56.539062 L 56.628906 56.539062 C 56.691406 56.539062 56.726562 56.566406 56.738281 56.625 L 56.769531 57.136719 C 56.839844 57.039062 56.914062 56.953125 56.988281 56.871094 C 57.066406 56.792969 57.152344 56.722656 57.242188 56.664062 C 57.328125 56.605469 57.425781 56.5625 57.523438 56.53125 C 57.625 56.496094 57.730469 56.480469 57.84375 56.480469 C 58.101562 56.480469 58.308594 56.558594 58.464844 56.707031 C 58.617188 56.859375 58.722656 57.066406 58.777344 57.335938 C 58.820312 57.1875 58.882812 57.0625 58.957031 56.957031 C 59.035156 56.847656 59.121094 56.761719 59.222656 56.691406 C 59.320312 56.621094 59.429688 56.566406 59.546875 56.535156 C 59.664062 56.5 59.785156 56.480469 59.910156 56.480469 C 60.085938 56.480469 60.242188 56.511719 60.382812 56.570312 C 60.523438 56.625 60.640625 56.714844 60.742188 56.828125 C 60.839844 56.941406 60.914062 57.082031 60.96875 57.246094 C 61.023438 57.414062 61.046875 57.601562 61.046875 57.816406 L 61.046875 60.074219 L 60.707031 60.074219 L 60.707031 57.816406 C 60.707031 57.46875 60.632812 57.203125 60.484375 57.023438 C 60.332031 56.84375 60.117188 56.753906 59.839844 56.753906 C 59.714844 56.753906 59.597656 56.773438 59.484375 56.820312 C 59.371094 56.867188 59.273438 56.933594 59.1875 57.019531 C 59.097656 57.109375 59.03125 57.222656 58.980469 57.355469 C 58.925781 57.488281 58.902344 57.640625 58.902344 57.816406 L 58.902344 60.074219 L 58.566406 60.074219 L 58.566406 57.816406 C 58.566406 57.472656 58.496094 57.210938 58.359375 57.027344 C 58.222656 56.84375 58.019531 56.753906 57.753906 56.753906 C 57.5625 56.753906 57.382812 56.8125 57.21875 56.925781 C 57.054688 57.039062 56.910156 57.199219 56.78125 57.402344 L 56.78125 60.074219 L 56.445312 60.074219 Z M 56.445312 60.070312 " fill-opacity="1" fill-rule="nonzero"/><path fill="rgb(3.529358%, 39.219666%, 74.508667%)" d="M 63.472656 56.480469 C 63.726562 56.480469 63.953125 56.523438 64.15625 56.609375 C 64.355469 56.699219 64.523438 56.820312 64.664062 56.980469 C 64.800781 57.136719 64.90625 57.328125 64.980469 57.554688 C 65.054688 57.777344 65.089844 58.027344 65.089844 58.304688 C 65.089844 58.582031 65.054688 58.832031 64.980469 59.054688 C 64.90625 59.273438 64.800781 59.46875 64.664062 59.625 C 64.523438 59.785156 64.355469 59.90625 64.15625 59.992188 C 63.953125 60.078125 63.726562 60.121094 63.472656 60.121094 C 63.21875 60.121094 62.992188 60.078125 62.789062 59.992188 C 62.589844 59.90625 62.417969 59.785156 62.28125 59.625 C 62.144531 59.46875 62.035156 59.277344 61.960938 59.054688 C 61.890625 58.832031 61.851562 58.582031 61.851562 58.304688 C 61.851562 58.027344 61.890625 57.777344 61.960938 57.554688 C 62.035156 57.328125 62.140625 57.140625 62.28125 56.980469 C 62.417969 56.820312 62.589844 56.699219 62.789062 56.609375 C 62.992188 56.523438 63.21875 56.480469 63.472656 56.480469 Z M 63.472656 59.851562 C 63.683594 59.851562 63.867188 59.816406 64.027344 59.742188 C 64.183594 59.671875 64.316406 59.566406 64.421875 59.433594 C 64.527344 59.296875 64.609375 59.132812 64.660156 58.941406 C 64.710938 58.753906 64.738281 58.539062 64.738281 58.300781 C 64.738281 58.066406 64.710938 57.851562 64.660156 57.660156 C 64.609375 57.46875 64.527344 57.304688 64.421875 57.167969 C 64.316406 57.03125 64.183594 56.925781 64.027344 56.855469 C 63.871094 56.78125 63.683594 56.742188 63.472656 56.742188 C 63.257812 56.742188 63.078125 56.78125 62.917969 56.855469 C 62.757812 56.925781 62.625 57.03125 62.519531 57.167969 C 62.414062 57.304688 62.335938 57.46875 62.28125 57.660156 C 62.230469 57.851562 62.203125 58.066406 62.203125 58.300781 C 62.203125 58.539062 62.230469 58.753906 62.28125 58.941406 C 62.335938 59.132812 62.414062 59.296875 62.519531 59.433594 C 62.625 59.566406 62.761719 59.671875 62.917969 59.742188 C 63.078125 59.816406 63.261719 59.851562 63.472656 59.851562 Z M 63.472656 59.851562 " fill-opacity="1" fill-rule="nonzero"/><path fill="rgb(3.529358%, 39.219666%, 74.508667%)" d="M 67.355469 60.070312 L 67.355469 54.902344 L 67.695312 54.902344 L 67.695312 57.140625 C 67.859375 56.941406 68.046875 56.777344 68.253906 56.660156 C 68.464844 56.542969 68.703125 56.480469 68.964844 56.480469 C 69.160156 56.480469 69.328125 56.511719 69.480469 56.574219 C 69.628906 56.632812 69.75 56.722656 69.847656 56.839844 C 69.945312 56.957031 70.019531 57.09375 70.070312 57.257812 C 70.121094 57.421875 70.144531 57.605469 70.144531 57.8125 L 70.144531 60.074219 L 69.808594 60.074219 L 69.808594 57.8125 C 69.808594 57.480469 69.730469 57.222656 69.578125 57.03125 C 69.425781 56.84375 69.191406 56.75 68.878906 56.75 C 68.648438 56.75 68.429688 56.808594 68.230469 56.929688 C 68.03125 57.046875 67.855469 57.214844 67.695312 57.421875 L 67.695312 60.070312 Z M 67.355469 60.070312 " fill-opacity="1" fill-rule="nonzero"/><path fill="rgb(3.529358%, 39.219666%, 74.508667%)" d="M 72.566406 56.480469 C 72.824219 56.480469 73.050781 56.523438 73.25 56.609375 C 73.449219 56.699219 73.621094 56.820312 73.757812 56.980469 C 73.898438 57.136719 74 57.328125 74.074219 57.554688 C 74.148438 57.777344 74.183594 58.027344 74.183594 58.304688 C 74.183594 58.582031 74.148438 58.832031 74.074219 59.054688 C 74.003906 59.273438 73.898438 59.46875 73.757812 59.625 C 73.621094 59.785156 73.449219 59.90625 73.25 59.992188 C 73.050781 60.078125 72.820312 60.121094 72.566406 60.121094 C 72.316406 60.121094 72.085938 60.078125 71.886719 59.992188 C 71.683594 59.90625 71.515625 59.785156 71.375 59.625 C 71.238281 59.46875 71.132812 59.277344 71.058594 59.054688 C 70.984375 58.832031 70.949219 58.582031 70.949219 58.304688 C 70.949219 58.027344 70.984375 57.777344 71.058594 57.554688 C 71.128906 57.328125 71.238281 57.140625 71.375 56.980469 C 71.515625 56.820312 71.683594 56.699219 71.886719 56.609375 C 72.085938 56.523438 72.3125 56.480469 72.566406 56.480469 Z M 72.566406 59.851562 C 72.777344 59.851562 72.964844 59.816406 73.121094 59.742188 C 73.28125 59.671875 73.414062 59.566406 73.519531 59.433594 C 73.625 59.296875 73.703125 59.132812 73.753906 58.941406 C 73.808594 58.753906 73.832031 58.539062 73.832031 58.300781 C 73.832031 58.066406 73.808594 57.851562 73.753906 57.660156 C 73.703125 57.46875 73.625 57.304688 73.519531 57.167969 C 73.414062 57.03125 73.28125 56.925781 73.121094 56.855469 C 72.964844 56.78125 72.78125 56.742188 72.566406 56.742188 C 72.355469 56.742188 72.171875 56.78125 72.011719 56.855469 C 71.855469 56.925781 71.722656 57.03125 71.617188 57.167969 C 71.511719 57.304688 71.433594 57.46875 71.378906 57.660156 C 71.324219 57.851562 71.300781 58.066406 71.300781 58.300781 C 71.300781 58.539062 71.324219 58.753906 71.378906 58.941406 C 71.433594 59.132812 71.511719 59.296875 71.617188 59.433594 C 71.722656 59.566406 71.855469 59.671875 72.011719 59.742188 C 72.171875 59.816406 72.355469 59.851562 72.566406 59.851562 Z M 72.566406 59.851562 " fill-opacity="1" fill-rule="nonzero"/><path fill="rgb(3.529358%, 39.219666%, 74.508667%)" d="M 77.03125 56.976562 C 77.015625 57.011719 76.988281 57.027344 76.953125 57.027344 C 76.929688 57.027344 76.894531 57.011719 76.851562 56.984375 C 76.808594 56.957031 76.757812 56.917969 76.6875 56.882812 C 76.621094 56.847656 76.539062 56.816406 76.4375 56.785156 C 76.339844 56.753906 76.21875 56.742188 76.078125 56.742188 C 75.945312 56.742188 75.832031 56.757812 75.722656 56.796875 C 75.617188 56.835938 75.527344 56.882812 75.453125 56.945312 C 75.378906 57.003906 75.320312 57.078125 75.277344 57.15625 C 75.238281 57.238281 75.21875 57.324219 75.21875 57.414062 C 75.21875 57.527344 75.246094 57.617188 75.304688 57.691406 C 75.359375 57.765625 75.433594 57.828125 75.527344 57.878906 C 75.621094 57.933594 75.726562 57.976562 75.84375 58.015625 C 75.960938 58.054688 76.082031 58.089844 76.207031 58.128906 C 76.328125 58.164062 76.449219 58.207031 76.566406 58.253906 C 76.683594 58.300781 76.789062 58.359375 76.882812 58.425781 C 76.976562 58.496094 77.050781 58.578125 77.109375 58.679688 C 77.167969 58.777344 77.195312 58.898438 77.195312 59.042969 C 77.195312 59.195312 77.167969 59.339844 77.109375 59.472656 C 77.054688 59.605469 76.972656 59.71875 76.867188 59.816406 C 76.761719 59.914062 76.632812 59.992188 76.476562 60.046875 C 76.324219 60.105469 76.148438 60.132812 75.953125 60.132812 C 75.699219 60.132812 75.484375 60.09375 75.304688 60.015625 C 75.125 59.933594 74.960938 59.832031 74.820312 59.703125 L 74.902344 59.582031 C 74.914062 59.5625 74.925781 59.546875 74.941406 59.539062 C 74.953125 59.53125 74.972656 59.527344 75 59.527344 C 75.03125 59.527344 75.070312 59.546875 75.113281 59.585938 C 75.160156 59.621094 75.21875 59.664062 75.289062 59.707031 C 75.363281 59.75 75.453125 59.792969 75.5625 59.832031 C 75.667969 59.867188 75.804688 59.886719 75.964844 59.886719 C 76.113281 59.886719 76.246094 59.867188 76.359375 59.824219 C 76.472656 59.785156 76.566406 59.730469 76.644531 59.65625 C 76.71875 59.585938 76.777344 59.503906 76.816406 59.40625 C 76.855469 59.3125 76.875 59.210938 76.875 59.105469 C 76.875 58.984375 76.847656 58.890625 76.789062 58.808594 C 76.734375 58.730469 76.660156 58.664062 76.566406 58.613281 C 76.472656 58.558594 76.367188 58.511719 76.25 58.472656 C 76.132812 58.433594 76.011719 58.398438 75.886719 58.359375 C 75.761719 58.324219 75.640625 58.28125 75.523438 58.234375 C 75.402344 58.191406 75.296875 58.132812 75.207031 58.066406 C 75.113281 57.996094 75.039062 57.914062 74.980469 57.816406 C 74.921875 57.71875 74.894531 57.59375 74.894531 57.445312 C 74.894531 57.320312 74.921875 57.199219 74.976562 57.085938 C 75.03125 56.96875 75.109375 56.867188 75.210938 56.777344 C 75.3125 56.691406 75.433594 56.621094 75.578125 56.570312 C 75.722656 56.515625 75.886719 56.488281 76.070312 56.488281 C 76.285156 56.488281 76.476562 56.523438 76.644531 56.582031 C 76.8125 56.644531 76.96875 56.742188 77.105469 56.871094 Z M 77.03125 56.976562 " fill-opacity="1" fill-rule="nonzero"/><path fill="rgb(3.529358%, 39.219666%, 74.508667%)" d="M 79.109375 60.128906 C 78.867188 60.128906 78.683594 60.0625 78.550781 59.929688 C 78.414062 59.796875 78.351562 59.59375 78.351562 59.316406 L 78.351562 56.902344 L 77.839844 56.902344 C 77.816406 56.902344 77.792969 56.894531 77.777344 56.878906 C 77.761719 56.867188 77.75 56.847656 77.75 56.820312 L 77.75 56.691406 L 78.359375 56.644531 L 78.445312 55.382812 C 78.445312 55.359375 78.457031 55.34375 78.46875 55.324219 C 78.484375 55.308594 78.503906 55.300781 78.53125 55.300781 L 78.691406 55.300781 L 78.691406 56.648438 L 79.804688 56.648438 L 79.804688 56.902344 L 78.691406 56.902344 L 78.691406 59.300781 C 78.691406 59.398438 78.703125 59.480469 78.726562 59.550781 C 78.753906 59.621094 78.789062 59.675781 78.832031 59.722656 C 78.875 59.769531 78.925781 59.800781 78.988281 59.820312 C 79.046875 59.84375 79.109375 59.855469 79.179688 59.855469 C 79.265625 59.855469 79.339844 59.84375 79.398438 59.816406 C 79.460938 59.789062 79.515625 59.765625 79.5625 59.734375 C 79.605469 59.707031 79.644531 59.675781 79.671875 59.652344 C 79.699219 59.628906 79.722656 59.617188 79.742188 59.617188 C 79.761719 59.617188 79.777344 59.628906 79.796875 59.652344 L 79.890625 59.800781 C 79.800781 59.898438 79.6875 59.980469 79.546875 60.039062 C 79.402344 60.097656 79.261719 60.128906 79.109375 60.128906 Z M 79.109375 60.128906 " fill-opacity="1" fill-rule="nonzero"/><path fill="rgb(3.529358%, 39.219666%, 74.508667%)" d="M 81.277344 55.316406 C 81.277344 55.359375 81.269531 55.398438 81.25 55.4375 C 81.230469 55.472656 81.207031 55.503906 81.179688 55.53125 C 81.152344 55.5625 81.117188 55.585938 81.082031 55.601562 C 81.042969 55.617188 81.003906 55.625 80.960938 55.625 C 80.914062 55.625 80.875 55.617188 80.839844 55.601562 C 80.800781 55.585938 80.765625 55.5625 80.738281 55.53125 C 80.710938 55.503906 80.6875 55.472656 80.671875 55.4375 C 80.65625 55.398438 80.644531 55.359375 80.644531 55.316406 C 80.644531 55.273438 80.652344 55.234375 80.671875 55.195312 C 80.6875 55.15625 80.710938 55.121094 80.738281 55.09375 C 80.765625 55.066406 80.800781 55.042969 80.839844 55.027344 C 80.875 55.011719 80.914062 55 80.960938 55 C 81 55 81.042969 55.007812 81.082031 55.027344 C 81.117188 55.042969 81.152344 55.066406 81.179688 55.09375 C 81.207031 55.121094 81.230469 55.15625 81.25 55.195312 C 81.265625 55.234375 81.277344 55.273438 81.277344 55.316406 Z M 81.125 56.539062 L 81.125 60.070312 L 80.785156 60.070312 L 80.785156 56.539062 Z M 81.125 56.539062 " fill-opacity="1" fill-rule="nonzero"/><path fill="rgb(3.529358%, 39.219666%, 74.508667%)" d="M 82.382812 60.070312 L 82.382812 56.539062 L 82.566406 56.539062 C 82.628906 56.539062 82.664062 56.566406 82.675781 56.625 L 82.707031 57.160156 C 82.867188 56.957031 83.054688 56.789062 83.269531 56.667969 C 83.484375 56.542969 83.726562 56.480469 83.988281 56.480469 C 84.183594 56.480469 84.355469 56.511719 84.503906 56.574219 C 84.652344 56.636719 84.777344 56.726562 84.875 56.839844 C 84.972656 56.957031 85.046875 57.097656 85.09375 57.261719 C 85.144531 57.425781 85.171875 57.609375 85.171875 57.816406 L 85.171875 60.074219 L 84.832031 60.074219 L 84.832031 57.816406 C 84.832031 57.484375 84.757812 57.222656 84.601562 57.035156 C 84.449219 56.847656 84.21875 56.75 83.90625 56.75 C 83.671875 56.75 83.457031 56.8125 83.257812 56.929688 C 83.058594 57.050781 82.878906 57.214844 82.722656 57.421875 L 82.722656 60.074219 L 82.382812 60.074219 Z M 82.382812 60.070312 " fill-opacity="1" fill-rule="nonzero"/><path fill="rgb(3.529358%, 39.219666%, 74.508667%)" d="M 87.410156 56.476562 C 87.566406 56.476562 87.707031 56.496094 87.839844 56.535156 C 87.972656 56.570312 88.089844 56.625 88.195312 56.695312 L 89.101562 56.695312 L 89.101562 56.8125 C 89.101562 56.871094 89.070312 56.902344 89.003906 56.90625 L 88.464844 56.945312 C 88.53125 57.035156 88.582031 57.136719 88.617188 57.25 C 88.652344 57.363281 88.671875 57.480469 88.671875 57.609375 C 88.671875 57.78125 88.640625 57.933594 88.578125 58.074219 C 88.515625 58.210938 88.429688 58.332031 88.320312 58.425781 C 88.207031 58.527344 88.078125 58.601562 87.921875 58.65625 C 87.765625 58.710938 87.59375 58.738281 87.40625 58.738281 C 87.203125 58.738281 87.019531 58.707031 86.851562 58.644531 C 86.75 58.703125 86.671875 58.769531 86.617188 58.847656 C 86.5625 58.925781 86.53125 59.003906 86.53125 59.074219 C 86.53125 59.175781 86.566406 59.253906 86.636719 59.308594 C 86.710938 59.363281 86.804688 59.402344 86.921875 59.429688 C 87.039062 59.453125 87.175781 59.46875 87.328125 59.476562 C 87.476562 59.484375 87.628906 59.492188 87.785156 59.5 C 87.941406 59.507812 88.09375 59.523438 88.246094 59.542969 C 88.398438 59.566406 88.53125 59.601562 88.648438 59.65625 C 88.765625 59.710938 88.863281 59.785156 88.933594 59.878906 C 89.003906 59.976562 89.039062 60.101562 89.039062 60.261719 C 89.039062 60.410156 89.003906 60.550781 88.929688 60.683594 C 88.855469 60.820312 88.75 60.941406 88.609375 61.042969 C 88.46875 61.148438 88.304688 61.230469 88.105469 61.292969 C 87.90625 61.355469 87.6875 61.386719 87.441406 61.386719 C 87.1875 61.386719 86.96875 61.359375 86.785156 61.308594 C 86.597656 61.257812 86.4375 61.1875 86.308594 61.101562 C 86.183594 61.015625 86.085938 60.914062 86.023438 60.800781 C 85.960938 60.6875 85.929688 60.566406 85.929688 60.4375 C 85.929688 60.253906 85.988281 60.089844 86.113281 59.953125 C 86.238281 59.820312 86.40625 59.714844 86.621094 59.640625 C 86.503906 59.601562 86.410156 59.542969 86.335938 59.46875 C 86.265625 59.390625 86.234375 59.285156 86.234375 59.152344 C 86.234375 59.101562 86.242188 59.050781 86.261719 58.992188 C 86.277344 58.941406 86.308594 58.886719 86.347656 58.832031 C 86.382812 58.777344 86.429688 58.730469 86.484375 58.679688 C 86.535156 58.632812 86.597656 58.59375 86.671875 58.550781 C 86.5 58.457031 86.371094 58.328125 86.277344 58.164062 C 86.183594 58.003906 86.136719 57.816406 86.136719 57.597656 C 86.136719 57.429688 86.164062 57.273438 86.226562 57.136719 C 86.289062 56.996094 86.375 56.878906 86.484375 56.777344 C 86.59375 56.679688 86.726562 56.601562 86.886719 56.546875 C 87.046875 56.503906 87.222656 56.476562 87.410156 56.476562 Z M 88.726562 60.308594 C 88.726562 60.199219 88.695312 60.109375 88.640625 60.042969 C 88.582031 59.976562 88.503906 59.921875 88.40625 59.882812 C 88.308594 59.847656 88.199219 59.816406 88.070312 59.804688 C 87.941406 59.789062 87.808594 59.777344 87.671875 59.769531 C 87.53125 59.761719 87.390625 59.757812 87.25 59.75 C 87.109375 59.742188 86.980469 59.726562 86.859375 59.707031 C 86.769531 59.742188 86.683594 59.78125 86.609375 59.828125 C 86.53125 59.875 86.464844 59.925781 86.410156 59.984375 C 86.355469 60.042969 86.3125 60.109375 86.28125 60.175781 C 86.25 60.246094 86.234375 60.324219 86.234375 60.40625 C 86.234375 60.511719 86.261719 60.605469 86.3125 60.695312 C 86.367188 60.785156 86.445312 60.863281 86.546875 60.925781 C 86.652344 60.992188 86.78125 61.042969 86.929688 61.082031 C 87.078125 61.121094 87.25 61.140625 87.445312 61.140625 C 87.625 61.140625 87.792969 61.121094 87.949219 61.082031 C 88.109375 61.039062 88.242188 60.984375 88.355469 60.910156 C 88.472656 60.835938 88.5625 60.75 88.628906 60.644531 C 88.695312 60.542969 88.726562 60.429688 88.726562 60.308594 Z M 87.410156 58.507812 C 87.5625 58.507812 87.699219 58.488281 87.816406 58.441406 C 87.933594 58.398438 88.035156 58.339844 88.117188 58.261719 C 88.199219 58.183594 88.257812 58.089844 88.300781 57.980469 C 88.339844 57.871094 88.359375 57.75 88.359375 57.617188 C 88.359375 57.484375 88.339844 57.363281 88.296875 57.253906 C 88.253906 57.140625 88.191406 57.046875 88.109375 56.96875 C 88.027344 56.890625 87.929688 56.832031 87.808594 56.785156 C 87.691406 56.746094 87.558594 56.722656 87.40625 56.722656 C 87.257812 56.722656 87.125 56.746094 87.003906 56.785156 C 86.886719 56.832031 86.785156 56.890625 86.703125 56.96875 C 86.621094 57.046875 86.558594 57.140625 86.515625 57.253906 C 86.476562 57.363281 86.453125 57.484375 86.453125 57.617188 C 86.453125 57.75 86.476562 57.871094 86.515625 57.980469 C 86.5625 58.089844 86.621094 58.183594 86.703125 58.261719 C 86.785156 58.339844 86.886719 58.398438 87.003906 58.441406 C 87.121094 58.488281 87.261719 58.507812 87.410156 58.507812 Z M 87.410156 58.507812 " fill-opacity="1" fill-rule="nonzero"/><path fill="rgb(3.529358%, 39.219666%, 74.508667%)" d="M 91.804688 55.316406 C 91.804688 55.359375 91.796875 55.398438 91.78125 55.4375 C 91.761719 55.472656 91.738281 55.503906 91.710938 55.53125 C 91.683594 55.5625 91.648438 55.585938 91.609375 55.601562 C 91.574219 55.617188 91.535156 55.625 91.488281 55.625 C 91.445312 55.625 91.40625 55.617188 91.367188 55.601562 C 91.332031 55.585938 91.296875 55.5625 91.269531 55.53125 C 91.242188 55.503906 91.21875 55.472656 91.199219 55.4375 C 91.183594 55.398438 91.175781 55.359375 91.175781 55.316406 C 91.175781 55.273438 91.183594 55.234375 91.199219 55.195312 C 91.21875 55.15625 91.242188 55.121094 91.269531 55.09375 C 91.296875 55.066406 91.332031 55.042969 91.367188 55.027344 C 91.40625 55.011719 91.445312 55 91.488281 55 C 91.53125 55 91.574219 55.007812 91.609375 55.027344 C 91.648438 55.042969 91.683594 55.066406 91.710938 55.09375 C 91.738281 55.121094 91.761719 55.15625 91.78125 55.195312 C 91.796875 55.234375 91.804688 55.273438 91.804688 55.316406 Z M 91.65625 56.539062 L 91.65625 60.070312 L 91.316406 60.070312 L 91.316406 56.539062 Z M 91.65625 56.539062 " fill-opacity="1" fill-rule="nonzero"/><path fill="rgb(3.529358%, 39.219666%, 74.508667%)" d="M 93.878906 60.128906 C 93.636719 60.128906 93.449219 60.0625 93.316406 59.929688 C 93.183594 59.796875 93.117188 59.59375 93.117188 59.316406 L 93.117188 56.902344 L 92.609375 56.902344 C 92.582031 56.902344 92.5625 56.894531 92.546875 56.878906 C 92.53125 56.867188 92.519531 56.847656 92.519531 56.820312 L 92.519531 56.691406 L 93.125 56.644531 L 93.210938 55.382812 C 93.214844 55.359375 93.222656 55.34375 93.238281 55.324219 C 93.253906 55.308594 93.273438 55.300781 93.300781 55.300781 L 93.457031 55.300781 L 93.457031 56.648438 L 94.574219 56.648438 L 94.574219 56.902344 L 93.457031 56.902344 L 93.457031 59.300781 C 93.457031 59.398438 93.46875 59.480469 93.496094 59.550781 C 93.523438 59.621094 93.554688 59.675781 93.601562 59.722656 C 93.644531 59.769531 93.695312 59.800781 93.753906 59.820312 C 93.816406 59.84375 93.878906 59.855469 93.949219 59.855469 C 94.035156 59.855469 94.105469 59.84375 94.167969 59.816406 C 94.230469 59.789062 94.285156 59.765625 94.328125 59.734375 C 94.375 59.707031 94.410156 59.675781 94.441406 59.652344 C 94.46875 59.628906 94.492188 59.617188 94.507812 59.617188 C 94.527344 59.617188 94.546875 59.628906 94.566406 59.652344 L 94.660156 59.800781 C 94.570312 59.898438 94.453125 59.980469 94.316406 60.039062 C 94.171875 60.097656 94.027344 60.128906 93.878906 60.128906 Z M 93.878906 60.128906 " fill-opacity="1" fill-rule="nonzero"/><path fill="rgb(3.529358%, 39.219666%, 74.508667%)" d="M 97.71875 60.070312 C 97.648438 60.070312 97.605469 60.039062 97.585938 59.972656 L 97.539062 59.519531 C 97.441406 59.617188 97.34375 59.703125 97.246094 59.777344 C 97.152344 59.851562 97.050781 59.917969 96.945312 59.96875 C 96.839844 60.019531 96.730469 60.058594 96.605469 60.085938 C 96.484375 60.117188 96.351562 60.128906 96.207031 60.128906 C 96.085938 60.128906 95.96875 60.113281 95.851562 60.074219 C 95.738281 60.039062 95.636719 59.988281 95.550781 59.914062 C 95.464844 59.839844 95.390625 59.746094 95.339844 59.628906 C 95.285156 59.515625 95.257812 59.375 95.257812 59.214844 C 95.257812 59.066406 95.300781 58.929688 95.386719 58.800781 C 95.472656 58.671875 95.605469 58.558594 95.789062 58.464844 C 95.972656 58.371094 96.207031 58.292969 96.492188 58.238281 C 96.777344 58.179688 97.121094 58.148438 97.523438 58.136719 L 97.523438 57.769531 C 97.523438 57.441406 97.453125 57.191406 97.3125 57.015625 C 97.171875 56.839844 96.960938 56.75 96.679688 56.75 C 96.507812 56.75 96.363281 56.773438 96.242188 56.820312 C 96.125 56.867188 96.019531 56.917969 95.9375 56.976562 C 95.855469 57.035156 95.789062 57.085938 95.734375 57.132812 C 95.683594 57.179688 95.640625 57.203125 95.605469 57.203125 C 95.558594 57.203125 95.519531 57.183594 95.496094 57.140625 L 95.4375 57.039062 C 95.621094 56.855469 95.816406 56.714844 96.023438 56.617188 C 96.226562 56.523438 96.457031 56.476562 96.71875 56.476562 C 96.910156 56.476562 97.074219 56.503906 97.21875 56.566406 C 97.359375 56.628906 97.476562 56.714844 97.570312 56.828125 C 97.664062 56.941406 97.738281 57.078125 97.785156 57.234375 C 97.832031 57.394531 97.855469 57.574219 97.855469 57.769531 L 97.855469 60.070312 Z M 96.292969 59.882812 C 96.429688 59.882812 96.558594 59.867188 96.671875 59.839844 C 96.789062 59.808594 96.894531 59.769531 96.992188 59.714844 C 97.09375 59.660156 97.183594 59.597656 97.269531 59.523438 C 97.355469 59.453125 97.4375 59.371094 97.523438 59.289062 L 97.523438 58.367188 C 97.183594 58.378906 96.894531 58.402344 96.652344 58.445312 C 96.410156 58.488281 96.207031 58.542969 96.046875 58.613281 C 95.890625 58.683594 95.773438 58.769531 95.699219 58.867188 C 95.621094 58.964844 95.585938 59.078125 95.585938 59.203125 C 95.585938 59.324219 95.605469 59.425781 95.648438 59.511719 C 95.6875 59.597656 95.738281 59.667969 95.800781 59.726562 C 95.867188 59.78125 95.941406 59.820312 96.027344 59.847656 C 96.109375 59.871094 96.199219 59.882812 96.292969 59.882812 Z M 96.292969 59.882812 " fill-opacity="1" fill-rule="nonzero"/><path fill="rgb(3.529358%, 39.219666%, 74.508667%)" d="M 99.027344 54.902344 L 99.363281 54.902344 L 99.363281 60.070312 L 99.027344 60.070312 Z M 99.027344 54.902344 " fill-opacity="1" fill-rule="nonzero"/><path fill="rgb(3.529358%, 39.219666%, 74.508667%)" d="M 101.207031 55.316406 C 101.207031 55.359375 101.199219 55.398438 101.183594 55.4375 C 101.164062 55.472656 101.140625 55.503906 101.113281 55.53125 C 101.085938 55.5625 101.050781 55.585938 101.011719 55.601562 C 100.976562 55.617188 100.933594 55.625 100.890625 55.625 C 100.847656 55.625 100.808594 55.617188 100.769531 55.601562 C 100.734375 55.585938 100.699219 55.5625 100.671875 55.53125 C 100.644531 55.503906 100.617188 55.472656 100.601562 55.4375 C 100.585938 55.398438 100.578125 55.359375 100.578125 55.316406 C 100.578125 55.273438 100.585938 55.234375 100.601562 55.195312 C 100.621094 55.15625 100.644531 55.121094 100.671875 55.09375 C 100.699219 55.066406 100.734375 55.042969 100.769531 55.027344 C 100.808594 55.011719 100.847656 55 100.890625 55 C 100.933594 55 100.976562 55.007812 101.011719 55.027344 C 101.050781 55.042969 101.085938 55.066406 101.113281 55.09375 C 101.140625 55.121094 101.164062 55.15625 101.183594 55.195312 C 101.199219 55.234375 101.207031 55.273438 101.207031 55.316406 Z M 101.058594 56.539062 L 101.058594 60.070312 L 100.71875 60.070312 L 100.71875 56.539062 Z M 101.058594 56.539062 " fill-opacity="1" fill-rule="nonzero"/><path fill="rgb(3.529358%, 39.219666%, 74.508667%)" d="M 104.578125 60.070312 C 104.507812 60.070312 104.464844 60.039062 104.449219 59.972656 L 104.398438 59.519531 C 104.300781 59.617188 104.203125 59.703125 104.109375 59.777344 C 104.011719 59.851562 103.910156 59.917969 103.804688 59.96875 C 103.699219 60.019531 103.589844 60.058594 103.46875 60.085938 C 103.347656 60.117188 103.210938 60.128906 103.066406 60.128906 C 102.945312 60.128906 102.828125 60.113281 102.714844 60.074219 C 102.601562 60.039062 102.5 59.988281 102.410156 59.914062 C 102.324219 59.839844 102.253906 59.746094 102.199219 59.628906 C 102.144531 59.515625 102.117188 59.375 102.117188 59.214844 C 102.117188 59.066406 102.160156 58.929688 102.25 58.800781 C 102.332031 58.671875 102.46875 58.558594 102.648438 58.464844 C 102.832031 58.371094 103.066406 58.292969 103.351562 58.238281 C 103.636719 58.179688 103.984375 58.148438 104.382812 58.136719 L 104.382812 57.769531 C 104.382812 57.441406 104.3125 57.191406 104.171875 57.015625 C 104.03125 56.839844 103.820312 56.75 103.539062 56.75 C 103.371094 56.75 103.226562 56.773438 103.101562 56.820312 C 102.984375 56.867188 102.878906 56.917969 102.800781 56.976562 C 102.714844 57.035156 102.648438 57.085938 102.597656 57.132812 C 102.542969 57.179688 102.5 57.203125 102.464844 57.203125 C 102.417969 57.203125 102.382812 57.183594 102.359375 57.140625 L 102.296875 57.039062 C 102.484375 56.855469 102.675781 56.714844 102.882812 56.617188 C 103.085938 56.523438 103.316406 56.476562 103.578125 56.476562 C 103.769531 56.476562 103.933594 56.503906 104.078125 56.566406 C 104.222656 56.628906 104.339844 56.714844 104.433594 56.828125 C 104.527344 56.941406 104.597656 57.078125 104.644531 57.234375 C 104.691406 57.394531 104.714844 57.574219 104.714844 57.769531 L 104.714844 60.070312 Z M 103.152344 59.882812 C 103.289062 59.882812 103.414062 59.867188 103.53125 59.839844 C 103.644531 59.808594 103.753906 59.769531 103.851562 59.714844 C 103.949219 59.660156 104.042969 59.597656 104.128906 59.523438 C 104.214844 59.453125 104.296875 59.371094 104.378906 59.289062 L 104.378906 58.367188 C 104.042969 58.378906 103.75 58.402344 103.507812 58.445312 C 103.265625 58.488281 103.0625 58.542969 102.90625 58.613281 C 102.746094 58.683594 102.632812 58.769531 102.554688 58.867188 C 102.480469 58.964844 102.445312 59.078125 102.445312 59.203125 C 102.445312 59.324219 102.464844 59.425781 102.503906 59.511719 C 102.542969 59.597656 102.597656 59.667969 102.660156 59.726562 C 102.722656 59.78125 102.800781 59.820312 102.882812 59.847656 C 102.96875 59.871094 103.058594 59.882812 103.152344 59.882812 Z M 103.152344 59.882812 " fill-opacity="1" fill-rule="nonzero"/><path fill="rgb(3.529358%, 39.219666%, 74.508667%)" d="M 105.785156 60.070312 L 105.785156 56.539062 L 105.96875 56.539062 C 106.03125 56.539062 106.066406 56.566406 106.078125 56.625 L 106.109375 57.160156 C 106.269531 56.957031 106.457031 56.789062 106.671875 56.667969 C 106.886719 56.542969 107.128906 56.480469 107.390625 56.480469 C 107.585938 56.480469 107.757812 56.511719 107.90625 56.574219 C 108.054688 56.636719 108.179688 56.726562 108.277344 56.839844 C 108.375 56.957031 108.449219 57.097656 108.496094 57.261719 C 108.546875 57.425781 108.574219 57.609375 108.574219 57.816406 L 108.574219 60.074219 L 108.234375 60.074219 L 108.234375 57.816406 C 108.234375 57.484375 108.160156 57.222656 108.007812 57.035156 C 107.851562 56.847656 107.621094 56.75 107.308594 56.75 C 107.074219 56.75 106.859375 56.8125 106.660156 56.929688 C 106.460938 57.050781 106.28125 57.214844 106.125 57.421875 L 106.125 60.074219 L 105.785156 60.074219 Z M 105.785156 60.070312 " fill-opacity="1" fill-rule="nonzero"/><path fill="rgb(3.529358%, 39.219666%, 74.508667%)" d="M 110.996094 56.480469 C 111.25 56.480469 111.476562 56.523438 111.679688 56.609375 C 111.878906 56.699219 112.046875 56.820312 112.1875 56.980469 C 112.324219 57.136719 112.429688 57.328125 112.503906 57.554688 C 112.578125 57.777344 112.613281 58.027344 112.613281 58.304688 C 112.613281 58.582031 112.578125 58.832031 112.503906 59.054688 C 112.433594 59.273438 112.328125 59.46875 112.1875 59.625 C 112.046875 59.785156 111.878906 59.90625 111.679688 59.992188 C 111.476562 60.078125 111.25 60.121094 110.996094 60.121094 C 110.742188 60.121094 110.515625 60.078125 110.3125 59.992188 C 110.113281 59.90625 109.941406 59.785156 109.804688 59.625 C 109.667969 59.46875 109.558594 59.277344 109.484375 59.054688 C 109.414062 58.832031 109.375 58.582031 109.375 58.304688 C 109.375 58.027344 109.414062 57.777344 109.484375 57.554688 C 109.558594 57.328125 109.664062 57.140625 109.804688 56.980469 C 109.945312 56.820312 110.113281 56.699219 110.3125 56.609375 C 110.515625 56.523438 110.742188 56.480469 110.996094 56.480469 Z M 110.996094 59.851562 C 111.207031 59.851562 111.390625 59.816406 111.550781 59.742188 C 111.707031 59.671875 111.839844 59.566406 111.945312 59.433594 C 112.050781 59.296875 112.132812 59.132812 112.183594 58.941406 C 112.234375 58.753906 112.261719 58.539062 112.261719 58.300781 C 112.261719 58.066406 112.234375 57.851562 112.183594 57.660156 C 112.132812 57.46875 112.050781 57.304688 111.945312 57.167969 C 111.839844 57.03125 111.707031 56.925781 111.550781 56.855469 C 111.394531 56.78125 111.207031 56.742188 110.996094 56.742188 C 110.78125 56.742188 110.601562 56.78125 110.441406 56.855469 C 110.28125 56.925781 110.152344 57.03125 110.046875 57.167969 C 109.941406 57.304688 109.859375 57.46875 109.804688 57.660156 C 109.753906 57.851562 109.726562 58.066406 109.726562 58.300781 C 109.726562 58.539062 109.753906 58.753906 109.804688 58.941406 C 109.859375 59.132812 109.941406 59.296875 110.046875 59.433594 C 110.152344 59.566406 110.285156 59.671875 110.441406 59.742188 C 110.601562 59.816406 110.785156 59.851562 110.996094 59.851562 Z M 110.996094 59.851562 " fill-opacity="1" fill-rule="nonzero"/><path fill="rgb(3.529358%, 39.219666%, 74.508667%)" d="M 117.492188 55.65625 C 117.472656 55.695312 117.441406 55.714844 117.402344 55.714844 C 117.367188 55.714844 117.328125 55.695312 117.28125 55.648438 C 117.230469 55.605469 117.164062 55.558594 117.082031 55.503906 C 117 55.449219 116.894531 55.398438 116.769531 55.355469 C 116.644531 55.3125 116.488281 55.289062 116.304688 55.289062 C 116.125 55.289062 115.960938 55.316406 115.820312 55.367188 C 115.683594 55.417969 115.566406 55.488281 115.472656 55.582031 C 115.378906 55.671875 115.304688 55.773438 115.257812 55.894531 C 115.207031 56.011719 115.183594 56.136719 115.183594 56.265625 C 115.183594 56.4375 115.21875 56.578125 115.292969 56.6875 C 115.367188 56.800781 115.460938 56.894531 115.582031 56.972656 C 115.699219 57.046875 115.835938 57.117188 115.984375 57.167969 C 116.136719 57.222656 116.292969 57.277344 116.453125 57.328125 C 116.609375 57.378906 116.765625 57.4375 116.917969 57.5 C 117.066406 57.5625 117.203125 57.640625 117.324219 57.734375 C 117.441406 57.832031 117.539062 57.949219 117.609375 58.085938 C 117.683594 58.226562 117.722656 58.398438 117.722656 58.605469 C 117.722656 58.8125 117.683594 59.015625 117.609375 59.199219 C 117.539062 59.382812 117.433594 59.542969 117.296875 59.683594 C 117.15625 59.820312 116.988281 59.929688 116.789062 60.007812 C 116.585938 60.085938 116.359375 60.128906 116.105469 60.128906 C 115.769531 60.128906 115.484375 60.066406 115.246094 59.949219 C 115.003906 59.835938 114.792969 59.671875 114.613281 59.46875 L 114.714844 59.3125 C 114.742188 59.277344 114.773438 59.257812 114.8125 59.257812 C 114.835938 59.257812 114.863281 59.273438 114.894531 59.300781 C 114.925781 59.328125 114.96875 59.363281 115.015625 59.40625 C 115.0625 59.449219 115.121094 59.492188 115.1875 59.539062 C 115.253906 59.589844 115.328125 59.632812 115.417969 59.675781 C 115.507812 59.71875 115.609375 59.753906 115.722656 59.78125 C 115.839844 59.808594 115.96875 59.824219 116.113281 59.824219 C 116.316406 59.824219 116.492188 59.792969 116.648438 59.734375 C 116.804688 59.671875 116.9375 59.589844 117.046875 59.484375 C 117.152344 59.378906 117.238281 59.257812 117.296875 59.113281 C 117.351562 58.972656 117.378906 58.816406 117.378906 58.65625 C 117.378906 58.476562 117.34375 58.332031 117.269531 58.21875 C 117.199219 58.101562 117.101562 58.007812 116.984375 57.929688 C 116.863281 57.851562 116.726562 57.789062 116.578125 57.734375 C 116.425781 57.683594 116.269531 57.632812 116.113281 57.582031 C 115.953125 57.535156 115.796875 57.476562 115.644531 57.417969 C 115.496094 57.355469 115.359375 57.277344 115.242188 57.179688 C 115.121094 57.085938 115.027344 56.964844 114.953125 56.824219 C 114.878906 56.679688 114.84375 56.5 114.84375 56.285156 C 114.84375 56.117188 114.875 55.953125 114.941406 55.796875 C 115.003906 55.640625 115.097656 55.5 115.222656 55.382812 C 115.347656 55.261719 115.5 55.167969 115.683594 55.09375 C 115.863281 55.023438 116.070312 54.984375 116.304688 54.984375 C 116.566406 54.984375 116.800781 55.027344 117.011719 55.109375 C 117.21875 55.195312 117.410156 55.320312 117.578125 55.492188 Z M 117.492188 55.65625 " fill-opacity="1" fill-rule="nonzero"/><path fill="rgb(3.529358%, 39.219666%, 74.508667%)" d="M 119.945312 56.480469 C 120.144531 56.480469 120.332031 56.511719 120.5 56.582031 C 120.671875 56.652344 120.820312 56.75 120.941406 56.882812 C 121.066406 57.015625 121.164062 57.175781 121.234375 57.371094 C 121.304688 57.5625 121.339844 57.78125 121.339844 58.027344 C 121.339844 58.082031 121.332031 58.117188 121.316406 58.136719 C 121.300781 58.15625 121.277344 58.164062 121.242188 58.164062 L 118.679688 58.164062 L 118.679688 58.230469 C 118.679688 58.496094 118.714844 58.730469 118.773438 58.929688 C 118.835938 59.132812 118.925781 59.300781 119.039062 59.4375 C 119.15625 59.574219 119.292969 59.675781 119.453125 59.746094 C 119.613281 59.8125 119.796875 59.847656 119.996094 59.847656 C 120.175781 59.847656 120.328125 59.828125 120.460938 59.789062 C 120.589844 59.75 120.699219 59.707031 120.789062 59.65625 C 120.878906 59.609375 120.949219 59.566406 121.003906 59.527344 C 121.054688 59.488281 121.09375 59.46875 121.117188 59.46875 C 121.148438 59.46875 121.171875 59.480469 121.1875 59.503906 L 121.28125 59.617188 C 121.222656 59.6875 121.148438 59.753906 121.054688 59.8125 C 120.960938 59.875 120.855469 59.929688 120.738281 59.972656 C 120.625 60.015625 120.5 60.050781 120.367188 60.078125 C 120.238281 60.101562 120.105469 60.117188 119.96875 60.117188 C 119.726562 60.117188 119.507812 60.074219 119.304688 59.992188 C 119.105469 59.90625 118.933594 59.785156 118.792969 59.621094 C 118.648438 59.460938 118.539062 59.261719 118.460938 59.03125 C 118.382812 58.796875 118.34375 58.527344 118.34375 58.230469 C 118.34375 57.976562 118.378906 57.742188 118.453125 57.527344 C 118.527344 57.3125 118.628906 57.128906 118.765625 56.972656 C 118.902344 56.820312 119.070312 56.695312 119.269531 56.609375 C 119.46875 56.523438 119.695312 56.480469 119.945312 56.480469 Z M 119.949219 56.730469 C 119.765625 56.730469 119.605469 56.757812 119.460938 56.816406 C 119.3125 56.875 119.1875 56.957031 119.082031 57.0625 C 118.976562 57.167969 118.890625 57.296875 118.828125 57.445312 C 118.761719 57.59375 118.71875 57.765625 118.699219 57.949219 L 121.035156 57.949219 C 121.035156 57.757812 121.007812 57.589844 120.957031 57.4375 C 120.90625 57.289062 120.832031 57.160156 120.734375 57.054688 C 120.640625 56.953125 120.527344 56.871094 120.394531 56.816406 C 120.257812 56.757812 120.113281 56.730469 119.949219 56.730469 Z M 119.949219 56.730469 " fill-opacity="1" fill-rule="nonzero"/><path fill="rgb(3.529358%, 39.219666%, 74.508667%)" d="M 124.589844 57.007812 C 124.578125 57.019531 124.566406 57.03125 124.558594 57.039062 C 124.546875 57.046875 124.53125 57.050781 124.511719 57.050781 C 124.488281 57.050781 124.457031 57.035156 124.414062 57.003906 C 124.375 56.972656 124.316406 56.9375 124.25 56.898438 C 124.179688 56.859375 124.09375 56.824219 123.992188 56.792969 C 123.886719 56.761719 123.761719 56.746094 123.617188 56.746094 C 123.410156 56.746094 123.230469 56.78125 123.070312 56.855469 C 122.914062 56.925781 122.78125 57.03125 122.671875 57.164062 C 122.5625 57.300781 122.480469 57.464844 122.421875 57.65625 C 122.363281 57.84375 122.335938 58.0625 122.335938 58.300781 C 122.335938 58.550781 122.367188 58.769531 122.425781 58.960938 C 122.484375 59.15625 122.566406 59.316406 122.671875 59.449219 C 122.78125 59.578125 122.910156 59.679688 123.0625 59.75 C 123.214844 59.816406 123.382812 59.851562 123.570312 59.851562 C 123.738281 59.851562 123.882812 59.832031 124 59.792969 C 124.113281 59.753906 124.207031 59.710938 124.28125 59.660156 C 124.359375 59.613281 124.417969 59.570312 124.460938 59.53125 C 124.503906 59.492188 124.542969 59.472656 124.566406 59.472656 C 124.597656 59.472656 124.621094 59.484375 124.636719 59.507812 L 124.730469 59.621094 C 124.675781 59.691406 124.609375 59.757812 124.523438 59.816406 C 124.441406 59.878906 124.347656 59.933594 124.242188 59.980469 C 124.136719 60.023438 124.023438 60.058594 123.902344 60.082031 C 123.777344 60.109375 123.652344 60.121094 123.519531 60.121094 C 123.292969 60.121094 123.085938 60.078125 122.898438 60 C 122.714844 59.917969 122.550781 59.796875 122.417969 59.644531 C 122.285156 59.488281 122.179688 59.300781 122.105469 59.074219 C 122.027344 58.847656 121.992188 58.59375 121.992188 58.304688 C 121.992188 58.039062 122.027344 57.789062 122.097656 57.566406 C 122.171875 57.34375 122.273438 57.152344 122.410156 56.992188 C 122.546875 56.832031 122.714844 56.707031 122.914062 56.617188 C 123.113281 56.527344 123.339844 56.484375 123.597656 56.484375 C 123.828125 56.484375 124.03125 56.523438 124.210938 56.59375 C 124.390625 56.667969 124.546875 56.765625 124.679688 56.894531 Z M 124.589844 57.007812 " fill-opacity="1" fill-rule="nonzero"/><path fill="rgb(3.529358%, 39.219666%, 74.508667%)" d="M 125.75 56.539062 L 125.75 58.796875 C 125.75 59.128906 125.824219 59.390625 125.976562 59.578125 C 126.128906 59.765625 126.363281 59.863281 126.675781 59.863281 C 126.90625 59.863281 127.121094 59.800781 127.324219 59.683594 C 127.523438 59.570312 127.703125 59.40625 127.863281 59.195312 L 127.863281 56.539062 L 128.203125 56.539062 L 128.203125 60.070312 L 128.015625 60.070312 C 127.949219 60.070312 127.917969 60.039062 127.914062 59.980469 L 127.882812 59.453125 C 127.71875 59.65625 127.527344 59.820312 127.3125 59.941406 C 127.097656 60.066406 126.859375 60.128906 126.59375 60.128906 C 126.398438 60.128906 126.222656 60.09375 126.078125 60.035156 C 125.929688 59.972656 125.804688 59.882812 125.707031 59.769531 C 125.609375 59.652344 125.539062 59.511719 125.488281 59.347656 C 125.4375 59.183594 125.414062 59 125.414062 58.792969 L 125.414062 56.535156 L 125.75 56.535156 Z M 125.75 56.539062 " fill-opacity="1" fill-rule="nonzero"/><path fill="rgb(3.529358%, 39.219666%, 74.508667%)" d="M 129.359375 60.070312 L 129.359375 56.539062 L 129.539062 56.539062 C 129.578125 56.539062 129.605469 56.546875 129.625 56.5625 C 129.644531 56.582031 129.652344 56.609375 129.65625 56.648438 L 129.683594 57.394531 C 129.796875 57.109375 129.949219 56.882812 130.140625 56.722656 C 130.332031 56.558594 130.5625 56.476562 130.84375 56.476562 C 130.949219 56.476562 131.046875 56.488281 131.136719 56.511719 C 131.226562 56.535156 131.3125 56.566406 131.394531 56.609375 L 131.347656 56.84375 C 131.339844 56.878906 131.316406 56.898438 131.277344 56.898438 C 131.265625 56.898438 131.242188 56.894531 131.21875 56.886719 C 131.191406 56.875 131.160156 56.867188 131.121094 56.855469 C 131.082031 56.84375 131.035156 56.832031 130.976562 56.824219 C 130.917969 56.8125 130.851562 56.808594 130.777344 56.808594 C 130.511719 56.808594 130.289062 56.890625 130.117188 57.058594 C 129.941406 57.226562 129.804688 57.460938 129.695312 57.777344 L 129.695312 60.074219 L 129.359375 60.074219 Z M 129.359375 60.070312 " fill-opacity="1" fill-rule="nonzero"/><path fill="rgb(3.529358%, 39.219666%, 74.508667%)" d="M 132.78125 55.316406 C 132.78125 55.359375 132.773438 55.398438 132.753906 55.4375 C 132.734375 55.472656 132.710938 55.503906 132.683594 55.53125 C 132.65625 55.5625 132.621094 55.585938 132.585938 55.601562 C 132.546875 55.617188 132.507812 55.625 132.464844 55.625 C 132.417969 55.625 132.378906 55.617188 132.34375 55.601562 C 132.304688 55.585938 132.269531 55.5625 132.242188 55.53125 C 132.214844 55.503906 132.191406 55.472656 132.175781 55.4375 C 132.160156 55.398438 132.148438 55.359375 132.148438 55.316406 C 132.148438 55.273438 132.15625 55.234375 132.175781 55.195312 C 132.191406 55.15625 132.214844 55.121094 132.242188 55.09375 C 132.269531 55.066406 132.304688 55.042969 132.34375 55.027344 C 132.378906 55.011719 132.417969 55 132.464844 55 C 132.503906 55 132.546875 55.007812 132.585938 55.027344 C 132.621094 55.042969 132.65625 55.066406 132.683594 55.09375 C 132.710938 55.121094 132.734375 55.15625 132.753906 55.195312 C 132.773438 55.234375 132.78125 55.273438 132.78125 55.316406 Z M 132.628906 56.539062 L 132.628906 60.070312 L 132.292969 60.070312 L 132.292969 56.539062 Z M 132.628906 56.539062 " fill-opacity="1" fill-rule="nonzero"/><path fill="rgb(3.529358%, 39.219666%, 74.508667%)" d="M 134.851562 60.128906 C 134.613281 60.128906 134.425781 60.0625 134.292969 59.929688 C 134.15625 59.796875 134.09375 59.59375 134.09375 59.316406 L 134.09375 56.902344 L 133.582031 56.902344 C 133.558594 56.902344 133.535156 56.894531 133.519531 56.878906 C 133.503906 56.867188 133.492188 56.847656 133.492188 56.820312 L 133.492188 56.691406 L 134.101562 56.644531 L 134.1875 55.382812 C 134.1875 55.359375 134.199219 55.34375 134.210938 55.324219 C 134.226562 55.308594 134.246094 55.300781 134.273438 55.300781 L 134.433594 55.300781 L 134.433594 56.648438 L 135.546875 56.648438 L 135.546875 56.902344 L 134.433594 56.902344 L 134.433594 59.300781 C 134.433594 59.398438 134.445312 59.480469 134.46875 59.550781 C 134.496094 59.621094 134.53125 59.675781 134.574219 59.722656 C 134.617188 59.769531 134.667969 59.800781 134.730469 59.820312 C 134.789062 59.84375 134.851562 59.855469 134.921875 59.855469 C 135.007812 59.855469 135.082031 59.84375 135.140625 59.816406 C 135.203125 59.789062 135.257812 59.765625 135.304688 59.734375 C 135.347656 59.707031 135.386719 59.675781 135.414062 59.652344 C 135.441406 59.628906 135.464844 59.617188 135.484375 59.617188 C 135.503906 59.617188 135.519531 59.628906 135.539062 59.652344 L 135.632812 59.800781 C 135.542969 59.898438 135.429688 59.980469 135.289062 60.039062 C 135.148438 60.097656 135 60.128906 134.851562 60.128906 Z M 134.851562 60.128906 " fill-opacity="1" fill-rule="nonzero"/><path fill="rgb(3.529358%, 39.219666%, 74.508667%)" d="M 137.203125 61.210938 C 137.1875 61.242188 137.171875 61.269531 137.148438 61.289062 C 137.125 61.3125 137.089844 61.320312 137.050781 61.320312 L 136.808594 61.320312 L 137.433594 59.9375 L 135.929688 56.535156 L 136.210938 56.535156 C 136.25 56.535156 136.277344 56.542969 136.296875 56.5625 C 136.316406 56.578125 136.332031 56.597656 136.339844 56.621094 L 137.535156 59.371094 C 137.550781 59.40625 137.5625 59.441406 137.574219 59.480469 C 137.582031 59.515625 137.59375 59.550781 137.601562 59.59375 C 137.613281 59.554688 137.625 59.515625 137.640625 59.480469 C 137.65625 59.445312 137.667969 59.40625 137.683594 59.371094 L 138.863281 56.621094 C 138.875 56.59375 138.890625 56.574219 138.914062 56.558594 C 138.9375 56.542969 138.960938 56.535156 138.984375 56.535156 L 139.246094 56.535156 Z M 137.203125 61.210938 " fill-opacity="1" fill-rule="nonzero"/><path fill="rgb(3.529358%, 39.219666%, 74.508667%)" d="M 144.476562 55.042969 L 144.476562 55.34375 L 141.816406 55.34375 L 141.816406 57.457031 L 144.117188 57.457031 L 144.117188 57.757812 L 141.816406 57.757812 L 141.816406 60.070312 L 141.449219 60.070312 L 141.449219 55.042969 Z M 144.476562 55.042969 " fill-opacity="1" fill-rule="nonzero"/><path fill="rgb(3.529358%, 39.219666%, 74.508667%)" d="M 145.949219 55.316406 C 145.949219 55.359375 145.941406 55.398438 145.921875 55.4375 C 145.90625 55.472656 145.882812 55.503906 145.851562 55.53125 C 145.824219 55.5625 145.792969 55.585938 145.753906 55.601562 C 145.714844 55.617188 145.675781 55.625 145.632812 55.625 C 145.589844 55.625 145.550781 55.617188 145.511719 55.601562 C 145.472656 55.585938 145.441406 55.5625 145.410156 55.53125 C 145.382812 55.503906 145.359375 55.472656 145.34375 55.4375 C 145.328125 55.398438 145.320312 55.359375 145.320312 55.316406 C 145.320312 55.273438 145.328125 55.234375 145.34375 55.195312 C 145.363281 55.15625 145.382812 55.121094 145.410156 55.09375 C 145.441406 55.066406 145.472656 55.042969 145.511719 55.027344 C 145.550781 55.011719 145.589844 55 145.632812 55 C 145.675781 55 145.714844 55.007812 145.753906 55.027344 C 145.792969 55.042969 145.824219 55.066406 145.851562 55.09375 C 145.882812 55.121094 145.90625 55.15625 145.921875 55.195312 C 145.941406 55.234375 145.949219 55.273438 145.949219 55.316406 Z M 145.800781 56.539062 L 145.800781 60.070312 L 145.460938 60.070312 L 145.460938 56.539062 Z M 145.800781 56.539062 " fill-opacity="1" fill-rule="nonzero"/><path fill="rgb(3.529358%, 39.219666%, 74.508667%)" d="M 147.054688 60.070312 L 147.054688 56.539062 L 147.234375 56.539062 C 147.273438 56.539062 147.304688 56.546875 147.320312 56.5625 C 147.339844 56.582031 147.347656 56.609375 147.351562 56.648438 L 147.378906 57.394531 C 147.492188 57.109375 147.644531 56.882812 147.835938 56.722656 C 148.027344 56.558594 148.261719 56.476562 148.539062 56.476562 C 148.644531 56.476562 148.742188 56.488281 148.835938 56.511719 C 148.925781 56.535156 149.011719 56.566406 149.089844 56.609375 L 149.046875 56.84375 C 149.039062 56.878906 149.015625 56.898438 148.972656 56.898438 C 148.960938 56.898438 148.941406 56.894531 148.914062 56.886719 C 148.890625 56.875 148.855469 56.867188 148.816406 56.855469 C 148.78125 56.84375 148.730469 56.832031 148.671875 56.824219 C 148.613281 56.8125 148.546875 56.808594 148.476562 56.808594 C 148.207031 56.808594 147.984375 56.890625 147.8125 57.058594 C 147.640625 57.226562 147.5 57.460938 147.394531 57.777344 L 147.394531 60.074219 L 147.054688 60.074219 Z M 147.054688 60.070312 " fill-opacity="1" fill-rule="nonzero"/><path fill="rgb(3.529358%, 39.219666%, 74.508667%)" d="M 151.84375 56.976562 C 151.828125 57.011719 151.796875 57.027344 151.765625 57.027344 C 151.738281 57.027344 151.707031 57.011719 151.664062 56.984375 C 151.621094 56.957031 151.566406 56.917969 151.5 56.882812 C 151.433594 56.847656 151.347656 56.816406 151.25 56.785156 C 151.148438 56.753906 151.03125 56.742188 150.886719 56.742188 C 150.757812 56.742188 150.644531 56.757812 150.535156 56.796875 C 150.429688 56.835938 150.339844 56.882812 150.265625 56.945312 C 150.191406 57.003906 150.132812 57.078125 150.089844 57.15625 C 150.046875 57.238281 150.027344 57.324219 150.027344 57.414062 C 150.027344 57.527344 150.054688 57.617188 150.113281 57.691406 C 150.171875 57.765625 150.246094 57.828125 150.339844 57.878906 C 150.433594 57.933594 150.539062 57.976562 150.65625 58.015625 C 150.773438 58.054688 150.894531 58.089844 151.015625 58.128906 C 151.140625 58.164062 151.261719 58.207031 151.378906 58.253906 C 151.496094 58.300781 151.601562 58.359375 151.695312 58.425781 C 151.789062 58.496094 151.863281 58.578125 151.921875 58.679688 C 151.976562 58.777344 152.003906 58.898438 152.003906 59.042969 C 152.003906 59.195312 151.976562 59.339844 151.921875 59.472656 C 151.867188 59.605469 151.785156 59.71875 151.679688 59.816406 C 151.574219 59.914062 151.441406 59.992188 151.289062 60.046875 C 151.136719 60.105469 150.960938 60.132812 150.761719 60.132812 C 150.511719 60.132812 150.296875 60.09375 150.117188 60.015625 C 149.933594 59.933594 149.773438 59.832031 149.628906 59.703125 L 149.710938 59.582031 C 149.722656 59.5625 149.738281 59.546875 149.75 59.539062 C 149.765625 59.53125 149.785156 59.527344 149.8125 59.527344 C 149.84375 59.527344 149.882812 59.546875 149.925781 59.585938 C 149.972656 59.621094 150.027344 59.664062 150.101562 59.707031 C 150.171875 59.75 150.265625 59.792969 150.371094 59.832031 C 150.480469 59.867188 150.613281 59.886719 150.773438 59.886719 C 150.921875 59.886719 151.058594 59.867188 151.171875 59.824219 C 151.285156 59.785156 151.378906 59.730469 151.453125 59.65625 C 151.53125 59.585938 151.585938 59.503906 151.628906 59.40625 C 151.667969 59.3125 151.6875 59.210938 151.6875 59.105469 C 151.6875 58.984375 151.660156 58.890625 151.601562 58.808594 C 151.542969 58.730469 151.46875 58.664062 151.378906 58.613281 C 151.285156 58.558594 151.179688 58.511719 151.0625 58.472656 C 150.941406 58.433594 150.820312 58.398438 150.695312 58.359375 C 150.570312 58.324219 150.449219 58.28125 150.332031 58.234375 C 150.214844 58.191406 150.109375 58.132812 150.015625 58.066406 C 149.921875 57.996094 149.847656 57.914062 149.792969 57.816406 C 149.734375 57.71875 149.707031 57.59375 149.707031 57.445312 C 149.707031 57.320312 149.734375 57.199219 149.789062 57.085938 C 149.839844 56.96875 149.921875 56.867188 150.019531 56.777344 C 150.121094 56.691406 150.246094 56.621094 150.390625 56.570312 C 150.535156 56.515625 150.699219 56.488281 150.878906 56.488281 C 151.097656 56.488281 151.289062 56.523438 151.457031 56.582031 C 151.625 56.644531 151.777344 56.742188 151.917969 56.871094 Z M 151.84375 56.976562 " fill-opacity="1" fill-rule="nonzero"/><path fill="rgb(3.529358%, 39.219666%, 74.508667%)" d="M 153.921875 60.128906 C 153.679688 60.128906 153.492188 60.0625 153.359375 59.929688 C 153.226562 59.796875 153.160156 59.59375 153.160156 59.316406 L 153.160156 56.902344 L 152.652344 56.902344 C 152.625 56.902344 152.605469 56.894531 152.589844 56.878906 C 152.574219 56.867188 152.5625 56.847656 152.5625 56.820312 L 152.5625 56.691406 L 153.167969 56.644531 L 153.253906 55.382812 C 153.257812 55.359375 153.265625 55.34375 153.28125 55.324219 C 153.296875 55.308594 153.316406 55.300781 153.34375 55.300781 L 153.5 55.300781 L 153.5 56.648438 L 154.617188 56.648438 L 154.617188 56.902344 L 153.5 56.902344 L 153.5 59.300781 C 153.5 59.398438 153.511719 59.480469 153.539062 59.550781 C 153.566406 59.621094 153.597656 59.675781 153.640625 59.722656 C 153.6875 59.769531 153.738281 59.800781 153.796875 59.820312 C 153.855469 59.84375 153.921875 59.855469 153.992188 59.855469 C 154.074219 59.855469 154.148438 59.84375 154.210938 59.816406 C 154.273438 59.789062 154.328125 59.765625 154.371094 59.734375 C 154.417969 59.707031 154.453125 59.675781 154.484375 59.652344 C 154.511719 59.628906 154.535156 59.617188 154.550781 59.617188 C 154.570312 59.617188 154.589844 59.628906 154.609375 59.652344 L 154.703125 59.800781 C 154.613281 59.898438 154.496094 59.980469 154.359375 60.039062 C 154.214844 60.097656 154.070312 60.128906 153.921875 60.128906 Z M 153.921875 60.128906 " fill-opacity="1" fill-rule="nonzero"/><path fill="rgb(3.529358%, 39.219666%, 74.508667%)" d="M 49.121094 48.710938 C 47.011719 48.710938 44.882812 47.980469 43.210938 46.492188 L 45.023438 44.332031 C 46.273438 45.363281 47.585938 46.015625 49.179688 46.015625 C 50.433594 46.015625 51.1875 45.523438 51.1875 44.710938 L 51.1875 44.671875 C 51.1875 43.898438 50.710938 43.5 48.382812 42.90625 C 45.578125 42.195312 43.769531 41.421875 43.769531 38.667969 L 43.769531 38.628906 C 43.769531 36.113281 45.796875 34.449219 48.640625 34.449219 C 50.671875 34.449219 52.402344 35.082031 53.8125 36.210938 L 52.222656 38.507812 C 50.988281 37.65625 49.777344 37.140625 48.601562 37.140625 C 47.429688 37.140625 46.8125 37.675781 46.8125 38.351562 L 46.8125 38.390625 C 46.8125 39.300781 47.410156 39.597656 49.816406 40.210938 C 52.640625 40.945312 54.230469 41.957031 54.230469 44.371094 L 54.230469 44.414062 C 54.230469 47.164062 52.121094 48.710938 49.121094 48.710938 Z M 49.121094 48.710938 " fill-opacity="1" fill-rule="nonzero"/><path fill="rgb(3.529358%, 39.219666%, 74.508667%)" d="M 64.382812 48.511719 L 64.382812 42.945312 L 58.734375 42.945312 L 58.734375 48.511719 L 55.671875 48.511719 L 55.671875 34.644531 L 58.734375 34.644531 L 58.734375 40.132812 L 64.382812 40.132812 L 64.382812 34.644531 L 67.445312 34.644531 L 67.445312 48.511719 Z M 64.382812 48.511719 " fill-opacity="1" fill-rule="nonzero"/><path fill="rgb(3.529358%, 39.219666%, 74.508667%)" d="M 69.628906 48.511719 L 69.628906 34.644531 L 80.128906 34.644531 L 80.128906 37.359375 L 72.671875 37.359375 L 72.671875 40.171875 L 79.234375 40.171875 L 79.234375 42.886719 L 72.671875 42.886719 L 72.671875 45.800781 L 80.230469 45.800781 L 80.230469 48.511719 Z M 69.628906 48.511719 " fill-opacity="1" fill-rule="nonzero"/><path fill="rgb(3.529358%, 39.219666%, 74.508667%)" d="M 81.886719 48.511719 L 81.886719 34.644531 L 84.949219 34.644531 L 84.949219 45.738281 L 91.890625 45.738281 L 91.890625 48.511719 Z M 81.886719 48.511719 " fill-opacity="1" fill-rule="nonzero"/><path fill="rgb(3.529358%, 39.219666%, 74.508667%)" d="M 93.183594 48.511719 L 93.183594 34.644531 L 96.246094 34.644531 L 96.246094 45.738281 L 103.1875 45.738281 L 103.1875 48.511719 Z M 93.183594 48.511719 " fill-opacity="1" fill-rule="nonzero"/><path fill="rgb(3.529358%, 39.219666%, 74.508667%)" d="M 112.933594 48.511719 L 109.953125 44.074219 L 107.542969 44.074219 L 107.542969 48.511719 L 104.480469 48.511719 L 104.480469 34.644531 L 110.847656 34.644531 C 114.128906 34.644531 116.097656 36.367188 116.097656 39.222656 L 116.097656 39.261719 C 116.097656 41.5 114.882812 42.90625 113.113281 43.5625 L 116.515625 48.511719 Z M 112.996094 39.378906 C 112.996094 38.070312 112.078125 37.398438 110.589844 37.398438 L 107.542969 37.398438 L 107.542969 41.378906 L 110.648438 41.378906 C 112.140625 41.378906 112.996094 40.585938 112.996094 39.417969 Z M 112.996094 39.378906 " fill-opacity="1" fill-rule="nonzero"/><path fill="rgb(3.529358%, 39.219666%, 74.508667%)" d="M 117.667969 48.511719 L 117.667969 34.644531 L 128.171875 34.644531 L 128.171875 37.359375 L 120.710938 37.359375 L 120.710938 40.171875 L 127.277344 40.171875 L 127.277344 42.886719 L 120.710938 42.886719 L 120.710938 45.800781 L 128.269531 45.800781 L 128.269531 48.511719 Z M 117.667969 48.511719 " fill-opacity="1" fill-rule="nonzero"/><path fill="rgb(3.529358%, 39.219666%, 74.508667%)" d="M 139.695312 48.511719 L 132.953125 39.699219 L 132.953125 48.511719 L 129.929688 48.511719 L 129.929688 34.644531 L 132.753906 34.644531 L 139.277344 43.183594 L 139.277344 34.644531 L 142.300781 34.644531 L 142.300781 48.511719 Z M 139.695312 48.511719 " fill-opacity="1" fill-rule="nonzero"/><path fill="rgb(3.529358%, 39.219666%, 74.508667%)" d="M 150.414062 37.457031 L 150.414062 48.511719 L 147.347656 48.511719 L 147.347656 37.457031 L 143.113281 37.457031 L 143.113281 34.644531 L 154.648438 34.644531 L 154.648438 37.457031 Z M 150.414062 37.457031 " fill-opacity="1" fill-rule="nonzero"/></svg>