<?xml version="1.0" encoding="UTF-8"?><svg xmlns="http://www.w3.org/2000/svg" viewBox="0 0 623.62 255.12"><defs><style>.c{fill:#fff;}.d{fill:#e74a1e;}</style></defs><g id="a"><rect class="c" y="0" width="623.62" height="255.12"/></g><g id="b"><path class="d" d="M122.78,87.72c1.86,1.85,2.9,4.37,2.9,6.99v72.88c0,1.49-1.21,2.7-2.7,2.7-5.46,0-9.89-4.43-9.89-9.89h0V87.53c0-1.49,1.21-2.7,2.7-2.7,2.62,0,5.14,1.04,6.99,2.9Zm307.11,39.84c0,24.66-19.99,44.65-44.65,44.65-24.66,0-44.65-19.99-44.65-44.65,0-24.66,19.99-44.65,44.65-44.65,24.65,.03,44.62,20,44.65,44.65Zm-44.65-32.06c-17.71,0-32.06,14.36-32.06,32.06,0,17.71,14.36,32.06,32.06,32.06,17.71,0,32.06-14.36,32.06-32.06-.02-17.7-14.36-32.04-32.06-32.06Zm-157.38,32.07v40.03c0,1.49-1.21,2.7-2.7,2.7-5.46,0-9.89-4.43-9.89-9.89h0v-1.82c-17.15,17.69-45.4,18.13-63.09,.97-17.69-17.15-18.13-45.4-.97-63.09,17.15-17.69,45.4-18.13,63.09-.97,8.68,8.41,13.57,19.98,13.56,32.07Zm-44.65-32.07c-17.71,0-32.06,14.36-32.06,32.06,0,17.71,14.36,32.06,32.06,32.06,17.71,0,32.06-14.36,32.06-32.06h0c-.02-17.7-14.36-32.04-32.06-32.06Zm426.23,32.07v40.03c0,1.49-1.21,2.7-2.7,2.7-5.46,0-9.88-4.43-9.89-9.89v-1.82c-17.15,17.69-45.4,18.13-63.09,.97-17.69-17.15-18.13-45.4-.97-63.09,17.15-17.69,45.4-18.13,63.09-.97,8.68,8.41,13.57,19.98,13.56,32.07h0Zm-44.65-32.07c-17.71,0-32.06,14.36-32.06,32.06,0,17.71,14.36,32.06,32.06,32.06,17.71,0,32.06-14.36,32.06-32.06h0c-.02-17.7-14.36-32.04-32.06-32.06Zm-278.32-12.59c-.22,0-.44,0-.66,0-11.12,.16-21.72,4.72-29.48,12.68v-.88c0-5.46-4.43-9.88-9.89-9.89-1.49,0-2.7,1.21-2.7,2.7h0v80.07c0,1.49,1.21,2.7,2.7,2.7,5.46,0,9.88-4.43,9.89-9.89v-34.76c.07-16.41,13.21-29.78,29.62-30.14,.17,0,.34,0,.51,0,8.04,0,15.74,3.29,21.32,9.08,5.67,5.76,8.85,13.52,8.85,21.61v34.22c0,5.46,4.43,9.88,9.89,9.89,1.49,0,2.7-1.21,2.7-2.7v-41.95c-.03-23.59-19.14-42.71-42.73-42.73Zm231.93,2.36c-4.88-2.44-10.82-.47-13.26,4.41h0l-30.12,60.25-30.12-60.24c-2.44-4.88-8.37-6.87-13.26-4.43h-.01c-1.33,.67-1.87,2.29-1.21,3.62l38.96,77.92c1.56,3.11,5.34,4.36,8.45,2.8,1.21-.61,2.2-1.59,2.8-2.8l38.96-77.92c.66-1.33,.12-2.95-1.21-3.62h0Zm-417.54,0c-4.88-2.44-10.82-.47-13.26,4.41h0l-30.12,60.25-4.43-8.87c-1.56-3.11-5.34-4.37-8.44-2.81-3.11,1.55-4.36,5.33-2.81,8.44l10.06,20.12c1.56,3.11,5.34,4.36,8.45,2.8,1.21-.61,2.2-1.59,2.8-2.8l38.96-77.92c.66-1.33,.12-2.95-1.21-3.62h0Zm-79.9-1.09c-3.75,0-6.8,3.04-6.8,6.8s3.04,6.8,6.8,6.8,6.8-3.04,6.8-6.8h0c0-3.75-3.04-6.8-6.8-6.8Zm8.9,17.8c-3.75,0-6.8,3.04-6.8,6.8,0,3.75,3.04,6.8,6.8,6.8,3.75,0,6.8-3.04,6.8-6.8s-3.04-6.8-6.8-6.8h0Zm8.9,17.8c-3.75,0-6.8,3.04-6.8,6.8s3.04,6.8,6.8,6.8,6.8-3.04,6.8-6.8h0c0-3.75-3.04-6.8-6.8-6.8h0Z"/></g></svg>