<?xml version="1.0" encoding="UTF-8"?><svg xmlns="http://www.w3.org/2000/svg" viewBox="0 0 623.62 255.12"><defs><style>.p{fill:#fff;}.q{fill:#e42320;}</style></defs><g id="a"><rect class="p" y="0" width="623.62" height="255.12"/></g><g id="b"><g><g><path class="p" d="M34.32,134.17c-4.2-4.2-4.72-5.95-4.72-15.84,0-13.41,5.12-28.38,11.39-33.31,6.55-5.15,43.78-5.15,50.33,0,6.27,4.93,11.39,19.9,11.39,33.31,0,9.89-.52,11.64-4.72,15.84l-4.72,4.72H39.03l-4.72-4.72Z"/><path d="M62.69,190.48c-24.16-1.45-44.15-18.15-47.87-40-2.43-14.3,2.08-37.98,11.42-59.85,2.78-6.51,5.43-10.56,9.32-14.24,19.25-18.22,52.25-15.08,66.54,6.34,5.39,8.08,12.63,29.96,14.94,45.12,1.37,8.98,1.46,18.27,.25,24.14-4.08,19.74-21.61,35.11-43.44,38.08-1.99,.27-6.73,.6-8.12,.56-.45-.01-1.82-.08-3.03-.16h0Zm30.8-22.84c1.09-.57,1.67-1.54,1.67-2.8,0-1.08-.26-1.65-1.06-2.35-.71-.62-1.14-.74-2.3-.65-3.01,.25-3.72,4.35-.99,5.78,.61,.32,2.08,.33,2.67,.03Zm10.43-6.18c5.33-1.78,7.72-7.92,5.06-13-2.73-5.21-9.9-6.33-14.14-2.21-3.6,3.49-3.63,9.42-.08,13.03,2.33,2.37,6,3.24,9.16,2.18Zm-52.79-20.89c2.1-.32,4.23-.89,6.17-1.65,2.95-1.16,4.97-1.57,8.1-1.66,4.04-.12,5.38,.14,11.15,2.14,11.71,4.06,23.4-.73,25.91-10.64,.94-3.71,1.13-5.39,1.14-10.17,0-7.1-1.06-13-3.95-21.76-2.86-8.68-6.85-13.23-13.51-15.45-3.25-1.08-3.68-1.1-16-.85-5.06,.1-8.71,.09-12.87-.06-5.14-.18-5.99-.18-7.37,.05-8.43,1.38-13.7,6.14-16.81,15.19-4.32,12.59-5.44,22.95-3.44,31.9,.84,3.75,1.8,5.59,4.17,7.96,4.24,4.24,10.44,6.02,17.31,4.99h0Zm-10.86-10c-3.39-.74-5.69-3.8-5.12-6.81,.34-1.79,1.67-3.81,2.92-4.41,2.22-1.08,7.92-1.33,10.92-.49,.83,.23,.7,.32-.83,.57-1.97,.32-3.39,1.06-2.01,1.06,.82,0,.56,.26-.56,.56-.58,.16-1.18,.43-1.34,.6-.35,.39-.33,.39,1.91,.06,1.64-.25,2.94-.21,3.43,.09,.17,.11,.11,.17-.25,.25-1.21,.28-2.34,.63-2.88,.91-.64,.32-1.62,1.09-1.62,1.27,0,.06,.87,.12,1.93,.13,1.06,.01,2.15,.09,2.42,.18,.49,.15,.48,.16-.37,.34-1.53,.33-2.82,1.26-3.48,2.49-.25,.47-.2,.5,.59,.29,.76-.2,1.55-.06,1.55,.27,0,.36-1.57,1.68-2.56,2.15-1.51,.71-2.89,.86-4.61,.49h0Zm48.83,.07c-1.72-.34-4.3-2.17-4.04-2.86,.11-.29,1.2-.27,1.96,.02,.29,.11,.29,.09,.05-.38-.68-1.31-1.86-2.19-3.39-2.52-1.36-.29-.55-.52,1.93-.54,1.1,0,2.01-.07,2.01-.13,0-.36-1.67-1.33-2.94-1.71-2.19-.65-2.18-.65-1.32-.89,.62-.17,1.07-.16,2.83,.08,1.15,.16,2.14,.25,2.19,.2,.16-.16-.93-.74-1.77-.94-.89-.21-1.05-.49-.3-.49,1.34,0-.02-.71-2.05-1.06-1.72-.3-1.74-.31-.94-.54,2.77-.82,8-.67,10.61,.3,1.74,.65,3.25,3,3.35,5.23,.18,3.95-3.9,7.05-8.17,6.22Zm-25.97-3.19c-3.1-.62-7.35-2.75-8.72-4.37-.54-.64-.54-1.48,0-2.02,.68-.68,1.29-.55,2.8,.59,5.62,4.25,12.03,4.25,17.9-.02,1.62-1.18,2.23-1.27,2.91-.47,.77,.91,.49,1.63-1.04,2.76-4.35,3.19-9.27,4.44-13.85,3.53h0Zm-16.52-13.86c-5.68-.83-8.63-7.76-5.42-12.72,2.77-4.29,8.92-4.92,12.56-1.28,3.98,3.98,2.82,10.89-2.22,13.26-1.7,.8-3.06,1-4.91,.73Zm2.87-1.88c1.86-.49,3.5-1.86,4.34-3.65,.68-1.45,.65-3.78-.08-5.32-1.92-4.06-7.27-4.99-10.26-1.8-1.47,1.57-2.15,3.7-1.79,5.55,.75,3.78,4.28,6.14,7.79,5.22Zm-2.38-2.16c-.88-.14-2.14-1.07-2.64-1.97-1.68-3,.44-6.48,3.8-6.24,2.33,.17,3.77,1.72,3.77,4.11,0,2.72-2.16,4.53-4.94,4.1Zm36.02,4.06c-2.62-.42-4.77-2.05-6.02-4.56-1.62-3.25-.76-7.53,1.98-9.87,5.32-4.55,13.48-.74,13.48,6.31,0,5.04-4.5,8.91-9.43,8.12Zm3.58-2.14c2.95-1.11,4.77-4.87,3.8-7.89-1.43-4.48-6.83-6.01-10.29-2.92-5.27,4.7-.12,13.28,6.49,10.81Zm-3.2-1.75c-.88-.14-2.14-1.07-2.64-1.97-1.68-3,.44-6.48,3.8-6.24,2.33,.17,3.77,1.72,3.77,4.11,0,2.72-2.16,4.53-4.94,4.1h0Zm-46.85-11.43c-1.28-3.55,1.14-6.21,6.45-7.07,1.92-.31,3.22-.32,3.1-.02-.05,.12-.35,.29-.68,.37-1.47,.37-.72,.69,5.16,2.2l3.73,.96-4.92-.03c-6.28-.04-6.48,.01-8.59,2.14-1.72,1.73-2.16,2.01-3.22,2.01-.79,0-.84-.02-1.03-.56h0Zm56.55,.18c-.32-.22-.99-.87-1.49-1.44-1.92-2.19-3.15-2.5-9.25-2.37-2.44,.05-4.35,.06-4.26,.02,.09-.04,1.63-.45,3.43-.9,3.99-1,6.03-1.64,5.96-1.86-.03-.09-.34-.25-.69-.34-.35-.1-.67-.28-.71-.41-.11-.32,2.54-.13,4.38,.32,4.36,1.06,6.32,3.56,5.22,6.64-.23,.65-.25,.66-1.12,.7-.72,.04-1-.03-1.46-.35Z"/><path d="M55.08,189.12c-19.72-4.23-34.72-17.95-39.35-35.99-3.65-14.23,1.91-43.63,12.41-65.61,5.16-10.8,16.12-19.03,29.04-21.81,5.65-1.21,14.78-.94,20.41,.6,8.19,2.25,13.16,5.09,18.99,10.85,4.42,4.37,5.58,5.95,7.91,10.82,5.07,10.62,10.11,27.16,12.13,39.82,1.08,6.75,1.24,19.89,.29,24.2-4.01,18.29-19.74,32.98-39.75,37.1-5.67,1.17-16.7,1.18-22.09,.02Zm39.51-22c1.14-1.14,.86-3.92-.49-4.86-2.85-2-6.35,.91-4.9,4.08,.53,1.16,1.13,1.5,2.68,1.5,1.1,0,2.32-.32,2.71-.72h0Zm11.53-6.44c5-3.5,5.61-10.13,1.34-14.61-4.78-5.01-14.21-2.14-15.5,4.71-.5,2.64,.52,6.3,2.32,8.38,2.72,3.14,8.48,3.88,11.84,1.52h0Zm-49.06-21.36c3.25-1.04,6.04-1.49,9.13-1.49s5.89,.46,9.13,1.49c8.94,2.85,17.44,1.8,22.69-2.82,3.94-3.47,5.26-7.16,5.58-15.68,.33-8.52-.47-14.07-3.27-22.62-3.27-10.02-7.23-14.85-14.02-17.11-2.48-.82-5.65-.94-21.17-.78l-18.25,.18-3.52,1.8c-6.32,3.23-9.22,7.93-12.8,20.71-1.42,5.08-1.6,6.75-1.6,15.31,0,8.76,.12,9.87,1.38,12.61,1.87,4.07,3.95,6.13,8.22,8.18,4.88,2.34,11.6,2.42,18.49,.22h0Z"/><path class="q" d="M52.68,188.25c-5.09-1.36-13.02-4.99-17.27-7.9-12.66-8.66-20.56-23.25-20.56-37.97s5.77-38.17,13.32-53.79c2.59-5.36,3.73-6.98,7.65-10.81,5.43-5.32,9.54-7.87,16.7-10.4,4.88-1.72,5.85-1.86,13.37-1.87,6.8,0,8.83,.21,12.61,1.38,7.3,2.26,12.32,5.24,17.81,10.6,4.35,4.24,5.32,5.61,7.94,11.12,3.53,7.43,6.7,16.35,9.08,25.55,2.9,11.2,3.7,17.13,3.7,27.56,0,8.26-.18,10.15-1.31,13.51-5.14,15.36-16.6,26.43-33.32,32.18-4.36,1.5-5.72,1.67-15,1.84-8.74,.17-10.86,.02-14.71-1.01Zm42.53-22.12c.11-.78,.04-2.06-.16-2.84-.82-3.25-6.34-1.99-6.34,1.45,0,2.35,1.1,3.19,3.9,2.99,2-.15,2.44-.41,2.6-1.59h0Zm10.06-4.83c4.58-2.08,6.44-8.04,4.07-13.04-3.96-8.34-17.64-5.31-17.64,3.91,0,7.69,6.74,12.23,13.57,9.12Zm-48.13-21.74c6.19-1.55,12.12-1.52,18.42,.1,12.56,3.23,21.95,.53,26.04-7.49l1.81-3.56-.03-10.85c-.03-10.06-.15-11.24-1.68-16.25-3.55-11.64-7.83-17.79-13.99-20.09-3.03-1.13-4.63-1.22-22.34-1.22h-19.08l-3.86,2.33c-5.24,3.17-7.66,6.8-10.84,16.28-2.47,7.35-2.52,7.7-2.79,17.41-.31,11.14,.08,13.42,3.02,17.79,1.38,2.06,2.91,3.39,5.27,4.59,5.93,3.02,10.89,3.26,20.05,.96Z"/><path class="p" d="M98.26,161.71c-3.96-1.48-6.28-4.85-6.28-9.11,0-2.99,.48-4.22,2.42-6.17,1.44-1.45,2.02-1.8,3.88-2.37,6.36-1.93,11.85,2.12,11.85,8.73,0,3.81-1.88,6.87-5.17,8.44-1.74,.83-5.13,1.07-6.7,.48Z"/><path class="p" d="M89.63,166.82c-.87-.92-.88-2.84-.04-3.92,.84-1.07,2.67-1.61,3.84-1.12,1.12,.46,1.56,1.44,1.56,3.48s-.36,2.25-2.93,2.25c-1.46,0-1.88-.12-2.42-.7h0Z"/></g><g id="c"><path id="d" d="M192.11,131.09c0,3.66-.5,6.85-1.51,9.55-.96,2.66-2.36,4.88-4.19,6.66-1.79,1.74-3.96,3.05-6.53,3.92-2.56,.82-5.43,1.24-8.59,1.24-1.28,0-2.56-.02-3.85-.07-1.28-.04-2.49-.11-3.64-.21-1.1-.04-2.08-.11-2.95-.21-.87-.04-1.56-.11-2.06-.21-.96-.14-1.44-.71-1.44-1.72v-47.2c0-1.01,.48-1.58,1.44-1.72,.5-.09,1.19-.16,2.06-.21,.87-.09,1.85-.16,2.95-.21,1.15-.09,2.36-.16,3.64-.21,1.28-.04,2.56-.07,3.85-.07,3.16,0,6.02,.41,8.59,1.24,2.57,.82,4.74,2.13,6.53,3.92,1.83,1.74,3.23,3.96,4.19,6.66,1.01,2.66,1.51,5.84,1.51,9.55v9.28h0Zm-6.25-9.28c0-3.11-.37-5.7-1.1-7.76-.73-2.06-1.77-3.69-3.09-4.88-1.28-1.24-2.81-2.11-4.6-2.61-1.79-.5-3.71-.76-5.77-.76-1.6,0-3,.02-4.19,.07-1.15,0-2.29,.05-3.44,.14v40.95c1.1,.09,2.25,.14,3.44,.14h4.19c2.06,0,3.98-.25,5.77-.76,1.79-.5,3.32-1.37,4.6-2.61,1.33-1.24,2.36-2.89,3.09-4.95,.73-2.06,1.1-4.63,1.1-7.7v-9.27Z"/><path id="e" d="M227.01,150.6c0,.37-.14,.69-.41,.96-.27,.27-.6,.41-.96,.41h-3.16c-.37,0-.69-.14-.96-.41-.28-.27-.41-.6-.41-.96v-1.51c-1.65,.96-3.34,1.76-5.09,2.4-1.74,.64-3.57,.96-5.5,.96-1.46,0-2.89-.16-4.26-.48-1.33-.37-2.52-.98-3.57-1.86-1.01-.87-1.83-2.02-2.47-3.44-.6-1.42-.89-3.21-.89-5.36v-.82c0-1.88,.27-3.5,.82-4.88,.59-1.37,1.53-2.52,2.82-3.44,1.33-.96,3.04-1.67,5.15-2.13,2.11-.46,4.69-.69,7.76-.69h5.08v-2.75c0-2.89-.55-4.9-1.65-6.05-1.1-1.15-3-1.72-5.7-1.72-2.25,0-4.22,.07-5.91,.21-1.69,.09-3.23,.21-4.6,.34h-.35c-.32,0-.62-.07-.9-.21-.23-.14-.35-.44-.35-.89v-2.4c0-.73,.48-1.17,1.44-1.31,1.42-.23,2.95-.44,4.6-.62,1.69-.18,3.71-.27,6.05-.27,4.76,0,8.18,1.15,10.24,3.44,2.1,2.24,3.16,5.41,3.16,9.48v23.98h.01Zm-6.05-16.9h-5.08c-2.06,0-3.78,.14-5.15,.41-1.38,.23-2.45,.62-3.23,1.17-.78,.5-1.33,1.19-1.65,2.06-.32,.82-.47,1.86-.48,3.09v.82c0,2.47,.55,4.15,1.65,5.02,1.1,.82,2.66,1.24,4.67,1.24,1.6,0,3.14-.23,4.6-.69,1.47-.46,3.02-1.15,4.67-2.06v-11.06Z"/><path id="f" d="M253.33,117.76c0,.78-.48,1.17-1.44,1.17-1.6,0-3.16,.23-4.67,.69-1.46,.41-3.07,1.15-4.81,2.2v28.79c0,.37-.14,.69-.41,.96-.28,.27-.6,.41-.96,.41h-3.37c-.37,0-.69-.14-.96-.41-.23-.27-.35-.6-.35-.96v-35.04c0-.37,.12-.69,.35-.96,.27-.27,.6-.41,.96-.41h3.23c.37,0,.67,.14,.9,.41,.28,.27,.41,.6,.41,.96v1.44c1.74-1.19,3.39-2.04,4.95-2.54,1.6-.5,3.18-.76,4.74-.76,.96,0,1.44,.41,1.44,1.24v2.82h0Z"/><path id="g" d="M288.79,150.6c0,.37-.14,.69-.41,.96-.23,.27-.53,.41-.89,.41h-3.44c-.37,0-.69-.14-.96-.41-.23-.27-.35-.6-.35-.96v-1.31c-1.92,1.05-3.71,1.86-5.36,2.4-1.65,.5-3.5,.76-5.56,.76-4.17,0-7.21-1.24-9.14-3.71-1.88-2.47-2.82-6-2.82-10.58v-22.61c0-.37,.14-.69,.41-.96,.28-.27,.6-.41,.96-.41h3.3c.37,0,.69,.14,.96,.41,.28,.27,.42,.6,.41,.96v22.61c0,1.74,.14,3.21,.41,4.4,.32,1.15,.78,2.06,1.37,2.75,.64,.69,1.45,1.19,2.4,1.51,.96,.27,2.08,.41,3.37,.41,1.47,0,2.98-.25,4.53-.76,1.56-.5,3.14-1.15,4.74-1.92v-29c0-.37,.14-.69,.41-.96,.28-.27,.59-.41,.96-.41h3.37c.37,0,.67,.14,.89,.41,.27,.27,.41,.6,.41,.96v35.04h0Z"/><path id="h" d="M343.62,150.6c0,.37-.14,.69-.41,.96-.28,.27-.59,.41-.96,.41h-3.3c-.37,0-.69-.14-.96-.41-.27-.27-.41-.6-.41-.96v-24.32c0-1.47-.16-2.66-.48-3.57-.32-.96-.75-1.72-1.3-2.27-.55-.55-1.21-.94-1.99-1.17-.73-.23-1.56-.34-2.47-.34-1.24,0-2.57,.18-3.99,.55-1.37,.37-2.72,.8-4.05,1.31,.41,1.51,.62,3.3,.62,5.36v24.46c0,.37-.12,.69-.35,.96-.23,.27-.52,.41-.89,.41h-3.64c-.37,0-.67-.14-.89-.41-.18-.27-.27-.6-.27-.96v-24.46c0-1.51-.12-2.73-.35-3.64-.18-.96-.5-1.69-.96-2.2-.46-.55-1.01-.92-1.65-1.1-.64-.18-1.42-.27-2.34-.27-1.24,0-2.59,.27-4.05,.82-1.42,.5-2.86,1.12-4.33,1.86v29c0,.37-.12,.69-.35,.96-.23,.27-.53,.41-.89,.41h-3.64c-.37,0-.67-.14-.89-.41-.18-.27-.28-.6-.27-.96v-35.04c0-.37,.11-.69,.35-.96,.28-.27,.6-.41,.96-.41h3.44c.37,0,.67,.14,.89,.41,.27,.27,.41,.6,.41,.96v1.31c1.37-.87,2.91-1.63,4.6-2.27,1.69-.64,3.5-.96,5.43-.96,1.47,0,2.75,.23,3.85,.69,1.15,.41,2.15,1.12,3.02,2.13,1.92-.92,3.85-1.6,5.77-2.06,1.97-.5,3.85-.76,5.63-.76,1.56,0,3,.21,4.33,.62,1.37,.41,2.56,1.12,3.57,2.13,1.01,.96,1.78,2.27,2.34,3.92,.59,1.6,.89,3.6,.89,5.98v24.32Z"/><path id="i" d="M379.28,150.6c0,.37-.14,.69-.41,.96-.28,.27-.59,.41-.96,.41h-3.16c-.37,0-.69-.14-.96-.41-.27-.27-.41-.6-.41-.96v-1.51c-1.65,.96-3.35,1.76-5.09,2.4-1.74,.64-3.57,.96-5.5,.96-1.47,0-2.89-.16-4.26-.48-1.33-.37-2.52-.98-3.57-1.86-1.01-.87-1.83-2.02-2.47-3.44-.6-1.42-.9-3.21-.9-5.36v-.82c0-1.88,.27-3.5,.82-4.88,.6-1.37,1.53-2.52,2.82-3.44,1.33-.96,3.04-1.67,5.15-2.13,2.11-.46,4.69-.69,7.76-.69h5.08v-2.75c0-2.89-.55-4.9-1.65-6.05s-3-1.72-5.7-1.72c-2.25,0-4.21,.07-5.91,.21-1.7,.09-3.23,.21-4.6,.34h-.35c-.32,0-.61-.07-.89-.21-.23-.14-.35-.44-.35-.89v-2.4c0-.73,.48-1.17,1.44-1.31,1.42-.23,2.95-.44,4.6-.62,1.69-.18,3.71-.27,6.05-.27,4.76,0,8.17,1.15,10.24,3.44,2.11,2.24,3.16,5.41,3.16,9.48v23.98h0Zm-6.05-16.9h-5.08c-2.06,0-3.78,.14-5.15,.41-1.37,.23-2.45,.62-3.23,1.17-.78,.5-1.33,1.19-1.65,2.06-.32,.82-.48,1.86-.48,3.09v.82c0,2.47,.55,4.15,1.65,5.02,1.1,.82,2.66,1.24,4.67,1.24,1.6,0,3.14-.23,4.6-.69,1.47-.46,3.02-1.15,4.67-2.06v-11.06Z"/><path id="j" d="M425.31,150.6c0,.37-.14,.69-.41,.96-.28,.27-.6,.41-.96,.41h-3.5c-.37,0-.69-.14-.96-.41-.28-.27-.41-.6-.41-.96v-22.81h-23.5v22.81c0,.37-.14,.69-.41,.96-.28,.27-.6,.41-.96,.41h-3.5c-.37,0-.69-.14-.96-.41-.27-.27-.41-.6-.41-.96v-48.3c0-.37,.14-.69,.41-.96,.28-.27,.6-.41,.96-.41h3.5c.37,0,.69,.14,.96,.41s.41,.6,.41,.96v19.93h23.5v-19.93c0-.37,.14-.69,.41-.96,.28-.27,.59-.41,.96-.41h3.5c.37,0,.69,.14,.96,.41,.28,.27,.41,.6,.41,.96v48.3Z"/><path id="k" d="M471.96,130.88c0,3.44-.39,6.44-1.17,9-.73,2.57-1.79,4.74-3.16,6.53-1.37,1.74-3.02,3.09-4.95,4.05-1.92,.96-4.03,1.58-6.32,1.86v2.95c0,.87,.04,1.56,.14,2.06,.13,.55,.36,.96,.68,1.24s.75,.46,1.3,.55c.55,.09,1.26,.14,2.13,.14h4.05c.41,0,.75,.09,1.03,.27,.32,.18,.48,.46,.48,.82v2.34c0,.6-.5,1.01-1.51,1.24-.96,.27-2.31,.41-4.05,.41s-3.18-.14-4.46-.41c-1.28-.23-2.36-.69-3.23-1.37-.87-.69-1.53-1.63-1.99-2.82-.41-1.15-.62-2.61-.62-4.4v-3.09c-2.29-.27-4.4-.89-6.32-1.86-1.88-1.01-3.5-2.38-4.88-4.12-1.38-1.74-2.45-3.87-3.23-6.39-.74-2.57-1.1-5.57-1.1-9v-8.86c0-3.8,.46-7.05,1.37-9.76,.96-2.75,2.27-4.99,3.92-6.73,1.65-1.74,3.59-3.02,5.84-3.85,2.29-.82,4.79-1.24,7.49-1.24s5.18,.41,7.42,1.24c2.29,.82,4.26,2.11,5.91,3.85,1.65,1.74,2.93,3.99,3.85,6.73,.92,2.7,1.37,5.95,1.37,9.76v8.86h0Zm-6.32-8.86c0-2.89-.3-5.34-.89-7.35-.55-2.02-1.35-3.66-2.4-4.95-1.06-1.28-2.34-2.2-3.85-2.75-1.51-.6-3.21-.89-5.08-.89s-3.58,.3-5.09,.89c-1.51,.55-2.82,1.47-3.91,2.75-1.06,1.28-1.88,2.93-2.47,4.95-.55,2.02-.83,4.47-.82,7.35v8.86c0,2.89,.28,5.34,.82,7.35,.59,2.02,1.42,3.66,2.47,4.95,1.1,1.28,2.4,2.22,3.91,2.82,1.51,.55,3.21,.82,5.09,.82s3.57-.27,5.08-.82c1.51-.6,2.8-1.53,3.85-2.82,1.05-1.28,1.85-2.93,2.4-4.95,.59-2.02,.89-4.47,.89-7.35v-8.86Z"/><path id="l" d="M486.39,150.53c0,.37-.14,.69-.41,.96-.23,.27-.53,.41-.89,.41h-3.3c-.37,0-.69-.14-.96-.41-.23-.27-.35-.6-.35-.96v-6.39c0-.37,.12-.66,.35-.89,.27-.27,.6-.41,.96-.41h3.3c.37,0,.67,.14,.89,.41,.28,.23,.41,.53,.41,.89v6.39Z"/><path id="m" d="M518.82,150.19c0,.46-.09,.8-.27,1.03-.18,.23-.55,.39-1.1,.48-1.14,.23-2.48,.41-3.99,.55-1.47,.14-3,.21-4.6,.21-2.34,0-4.42-.39-6.25-1.17-1.78-.82-3.32-1.95-4.6-3.37-1.24-1.47-2.18-3.23-2.82-5.29s-.96-4.35-.96-6.87v-5.36c0-2.52,.32-4.81,.96-6.87,.64-2.06,1.58-3.8,2.82-5.22,1.24-1.47,2.78-2.59,4.6-3.37,1.83-.82,3.91-1.24,6.25-1.24,1.6,0,3.14,.07,4.6,.21,1.51,.14,2.84,.32,3.99,.55,.55,.09,.92,.25,1.1,.48,.18,.18,.27,.53,.27,1.03v2.47c0,.37-.12,.64-.35,.82-.23,.14-.5,.21-.82,.21h-.27c-1.51-.18-2.89-.3-4.12-.34-1.24-.09-2.7-.14-4.4-.14-2.75,0-4.88,.94-6.39,2.82-1.46,1.83-2.2,4.7-2.2,8.59v5.36c0,3.89,.74,6.78,2.2,8.66,1.47,1.83,3.6,2.75,6.39,2.75,1.69,0,3.16-.02,4.4-.07,1.24-.09,2.61-.23,4.12-.41h.27c.32,0,.59,.09,.82,.27,.23,.14,.35,.39,.35,.76v2.47h0Z"/><path id="n" d="M555.86,135.69c0,2.52-.32,4.81-.96,6.87s-1.6,3.82-2.89,5.29c-1.28,1.47-2.89,2.61-4.81,3.44-1.93,.78-4.14,1.17-6.66,1.17s-4.74-.39-6.66-1.17c-1.88-.82-3.46-1.97-4.74-3.44-1.28-1.47-2.25-3.23-2.89-5.29-.64-2.06-.96-4.35-.96-6.87v-5.22c0-2.52,.32-4.81,.96-6.87,.64-2.06,1.6-3.82,2.89-5.29,1.28-1.47,2.86-2.59,4.74-3.37,1.92-.82,4.15-1.24,6.66-1.24s4.74,.41,6.66,1.24c1.92,.78,3.53,1.9,4.81,3.37,1.28,1.47,2.25,3.23,2.89,5.29,.64,2.06,.96,4.35,.96,6.87v5.22Zm-6.05-5.22c0-3.53-.73-6.32-2.2-8.38-1.47-2.06-3.82-3.09-7.08-3.09s-5.54,1.03-7.01,3.09c-1.47,2.02-2.2,4.81-2.2,8.38v5.22c0,3.53,.71,6.32,2.13,8.38,1.47,2.06,3.82,3.09,7.08,3.09s5.54-1.01,7.01-3.02c1.51-2.06,2.27-4.88,2.27-8.45v-5.22Z"/><path id="o" d="M609.45,150.6c0,.37-.14,.69-.41,.96-.27,.27-.6,.41-.96,.41h-3.3c-.37,0-.69-.14-.96-.41-.28-.27-.41-.6-.41-.96v-24.32c0-1.47-.16-2.66-.48-3.57-.32-.96-.75-1.72-1.3-2.27-.55-.55-1.22-.94-1.99-1.17-.73-.23-1.56-.34-2.47-.34-1.24,0-2.57,.18-3.99,.55-1.37,.37-2.72,.8-4.05,1.31,.41,1.51,.62,3.3,.62,5.36v24.46c0,.37-.12,.69-.35,.96-.23,.27-.53,.41-.89,.41h-3.64c-.37,0-.67-.14-.89-.41-.18-.27-.27-.6-.27-.96v-24.46c0-1.51-.12-2.73-.35-3.64-.18-.96-.5-1.69-.96-2.2-.46-.55-1-.92-1.65-1.1-.64-.18-1.42-.27-2.34-.27-1.23,0-2.58,.27-4.05,.82-1.42,.5-2.86,1.12-4.33,1.86v29c0,.37-.12,.69-.35,.96-.23,.27-.53,.41-.89,.41h-3.64c-.37,0-.67-.14-.9-.41-.18-.27-.27-.6-.27-.96v-35.04c0-.37,.12-.69,.35-.96,.27-.27,.59-.41,.96-.41h3.44c.37,0,.67,.14,.89,.41,.28,.27,.41,.6,.41,.96v1.31c1.37-.87,2.91-1.63,4.6-2.27s3.5-.96,5.43-.96c1.47,0,2.75,.23,3.85,.69,1.14,.41,2.16,1.12,3.02,2.13,1.92-.92,3.85-1.6,5.77-2.06,1.97-.5,3.85-.76,5.63-.76,1.56,0,3,.21,4.33,.62,1.37,.41,2.57,1.12,3.57,2.13,1.01,.96,1.79,2.27,2.34,3.92,.6,1.6,.89,3.6,.89,5.98v24.32h0Z"/></g></g></g></svg>