<svg xmlns="http://www.w3.org/2000/svg" xmlns:xlink="http://www.w3.org/1999/xlink" width="220" zoomAndPan="magnify" viewBox="0 0 165 82.499998" height="110" preserveAspectRatio="xMidYMid meet" version="1.0"><defs><clipPath id="id1"><path d="M 0.496094 0 L 164.503906 0 L 164.503906 82.003906 L 0.496094 82.003906 Z M 0.496094 0 " clip-rule="nonzero"/></clipPath><clipPath id="id2"><path d="M 140 28 L 154.734375 28 L 154.734375 46 L 140 46 Z M 140 28 " clip-rule="nonzero"/></clipPath><clipPath id="id3"><path d="M 37 50 L 41 50 L 41 55.523438 L 37 55.523438 Z M 37 50 " clip-rule="nonzero"/></clipPath><clipPath id="id4"><path d="M 42 50 L 44 50 L 44 55.523438 L 42 55.523438 Z M 42 50 " clip-rule="nonzero"/></clipPath><clipPath id="id5"><path d="M 45 50 L 51 50 L 51 55.523438 L 45 55.523438 Z M 45 50 " clip-rule="nonzero"/></clipPath><clipPath id="id6"><path d="M 52 50 L 53 50 L 53 55.523438 L 52 55.523438 Z M 52 50 " clip-rule="nonzero"/></clipPath><clipPath id="id7"><path d="M 54 50 L 58 50 L 58 55.523438 L 54 55.523438 Z M 54 50 " clip-rule="nonzero"/></clipPath><clipPath id="id8"><path d="M 59 50 L 64 50 L 64 55.523438 L 59 55.523438 Z M 59 50 " clip-rule="nonzero"/></clipPath><clipPath id="id9"><path d="M 65 50 L 68 50 L 68 55.523438 L 65 55.523438 Z M 65 50 " clip-rule="nonzero"/></clipPath><clipPath id="id10"><path d="M 72 50 L 77 50 L 77 55.523438 L 72 55.523438 Z M 72 50 " clip-rule="nonzero"/></clipPath><clipPath id="id11"><path d="M 78 50 L 83 50 L 83 55.523438 L 78 55.523438 Z M 78 50 " clip-rule="nonzero"/></clipPath><clipPath id="id12"><path d="M 84 50 L 91 50 L 91 55.523438 L 84 55.523438 Z M 84 50 " clip-rule="nonzero"/></clipPath><clipPath id="id13"><path d="M 92 50 L 96 50 L 96 55.523438 L 92 55.523438 Z M 92 50 " clip-rule="nonzero"/></clipPath><clipPath id="id14"><path d="M 96 50 L 101 50 L 101 55.523438 L 96 55.523438 Z M 96 50 " clip-rule="nonzero"/></clipPath><clipPath id="id15"><path d="M 102 50 L 107 50 L 107 55.523438 L 102 55.523438 Z M 102 50 " clip-rule="nonzero"/></clipPath><clipPath id="id16"><path d="M 108 50 L 113 50 L 113 55.523438 L 108 55.523438 Z M 108 50 " clip-rule="nonzero"/></clipPath></defs><g clip-path="url(#id1)"><path fill="rgb(100%, 100%, 100%)" d="M 0.496094 0 L 164.503906 0 L 164.503906 82.003906 L 0.496094 82.003906 Z M 0.496094 0 " fill-opacity="1" fill-rule="nonzero"/><path fill="rgb(100%, 100%, 100%)" d="M 0.496094 0 L 164.503906 0 L 164.503906 82.003906 L 0.496094 82.003906 Z M 0.496094 0 " fill-opacity="1" fill-rule="nonzero"/><path fill="rgb(100%, 100%, 100%)" d="M 0.496094 0 L 164.503906 0 L 164.503906 82.003906 L 0.496094 82.003906 Z M 0.496094 0 " fill-opacity="1" fill-rule="nonzero"/></g><path fill="rgb(0%, 62.348938%, 89.019775%)" d="M 10.992188 27.316406 L 29.429688 27.316406 C 29.644531 27.316406 29.828125 27.390625 29.976562 27.542969 C 30.128906 27.695312 30.203125 27.878906 30.203125 28.09375 L 30.203125 46.640625 C 30.203125 46.851562 30.128906 47.035156 29.976562 47.1875 C 29.828125 47.339844 29.644531 47.414062 29.429688 47.414062 L 10.992188 47.414062 C 10.777344 47.414062 10.597656 47.339844 10.445312 47.1875 C 10.296875 47.035156 10.21875 46.851562 10.21875 46.640625 L 10.21875 28.09375 C 10.21875 27.878906 10.296875 27.695312 10.445312 27.542969 C 10.597656 27.390625 10.777344 27.316406 10.992188 27.316406 Z M 10.992188 27.316406 " fill-opacity="1" fill-rule="nonzero"/><path fill="rgb(100%, 100%, 100%)" d="M 25.65625 30.292969 L 19.132812 44.425781 L 19.15625 44.4375 L 21.574219 44.4375 L 25.25 36.476562 L 26.898438 32.839844 Z M 25.65625 30.292969 " fill-opacity="1" fill-rule="nonzero"/><path fill="rgb(100%, 100%, 100%)" d="M 20.046875 30.292969 L 13.523438 44.425781 L 13.546875 44.4375 L 15.964844 44.4375 L 20.09375 35.496094 L 21.292969 32.847656 Z M 20.046875 30.292969 " fill-opacity="1" fill-rule="nonzero"/><path fill="rgb(7.058716%, 11.369324%, 15.689087%)" d="M 46.359375 39.984375 L 46.359375 28.859375 L 48.210938 28.859375 L 48.210938 39.984375 C 48.210938 41.851562 47.550781 43.332031 46.488281 44.339844 C 45.441406 45.335938 44.0625 45.820312 42.703125 45.820312 C 41.34375 45.820312 39.964844 45.335938 38.917969 44.339844 C 37.859375 43.332031 37.195312 41.851562 37.195312 39.984375 L 39.046875 39.984375 C 39.046875 41.386719 39.53125 42.363281 40.1875 42.988281 C 40.859375 43.628906 41.769531 43.960938 42.703125 43.960938 C 43.636719 43.960938 44.546875 43.628906 45.21875 42.988281 C 45.878906 42.363281 46.359375 41.386719 46.359375 39.984375 Z M 46.359375 39.984375 " fill-opacity="1" fill-rule="evenodd"/><path fill="rgb(7.058716%, 11.369324%, 15.689087%)" d="M 85.535156 28.875 C 86.910156 28.875 88.210938 29.207031 89.355469 29.792969 L 88.578125 31.480469 C 87.667969 31.003906 86.632812 30.734375 85.535156 30.734375 C 81.890625 30.734375 78.9375 33.707031 78.9375 37.375 C 78.9375 40.90625 81.675781 43.792969 85.132812 44.003906 L 86.464844 41.109375 L 84.152344 41.109375 L 84.152344 39.25 L 89.355469 39.25 L 86.371094 45.734375 L 86.363281 45.730469 L 86.3125 45.839844 C 86.054688 45.863281 85.796875 45.875 85.535156 45.875 C 80.871094 45.875 77.085938 42.070312 77.085938 37.375 C 77.085938 32.679688 80.871094 28.875 85.535156 28.875 Z M 85.535156 28.875 " fill-opacity="1" fill-rule="nonzero"/><g clip-path="url(#id2)"><path fill="rgb(7.058716%, 11.369324%, 15.689087%)" d="M 146.132812 28.875 L 140.5625 28.875 L 140.5625 45.878906 L 146.132812 45.878906 C 151.148438 45.878906 154.828125 42.308594 154.828125 37.378906 C 154.828125 32.449219 151.171875 28.875 146.132812 28.875 Z M 146.085938 44.007812 L 142.574219 44.007812 L 142.574219 30.773438 L 146.085938 30.773438 C 149.984375 30.773438 152.769531 33.558594 152.769531 37.378906 C 152.769531 41.21875 149.984375 44.007812 146.085938 44.007812 Z M 146.085938 44.007812 " fill-opacity="1" fill-rule="evenodd"/></g><path fill="rgb(7.058716%, 11.369324%, 15.689087%)" d="M 133.941406 45.882812 L 128.757812 34.726562 L 127.75 36.949219 L 131.898438 45.882812 Z M 133.941406 45.882812 " fill-opacity="1" fill-rule="nonzero"/><path fill="rgb(0%, 62.348938%, 89.019775%)" d="M 126.046875 28.878906 L 118.199219 45.882812 L 120.238281 45.882812 L 126.09375 33.195312 L 126.097656 33.199219 L 127.089844 31.015625 Z M 126.046875 28.878906 " fill-opacity="1" fill-rule="nonzero"/><path fill="rgb(7.058716%, 11.369324%, 15.689087%)" d="M 111.6875 45.882812 L 106.507812 34.726562 L 105.496094 36.949219 L 109.648438 45.882812 Z M 111.6875 45.882812 " fill-opacity="1" fill-rule="nonzero"/><path fill="rgb(0%, 62.348938%, 89.019775%)" d="M 103.796875 28.878906 L 95.949219 45.882812 L 97.988281 45.882812 L 103.84375 33.195312 L 103.847656 33.199219 L 104.839844 31.015625 Z M 103.796875 28.878906 " fill-opacity="1" fill-rule="nonzero"/><path fill="rgb(7.058716%, 11.369324%, 15.689087%)" d="M 62.640625 28.828125 L 70.480469 45.875 L 68.445312 45.875 L 62.644531 33.265625 L 56.878906 45.875 L 54.84375 45.875 Z M 62.640625 28.828125 " fill-opacity="1" fill-rule="nonzero"/><path fill="rgb(7.058716%, 11.369324%, 15.689087%)" d="M 58.480469 39.238281 L 66.9375 39.238281 L 66.9375 41.097656 L 58.480469 41.097656 Z M 58.480469 39.238281 " fill-opacity="1" fill-rule="nonzero"/><g clip-path="url(#id3)"><path fill="rgb(7.058716%, 11.369324%, 15.689087%)" d="M 38.492188 50.875 L 37.054688 50.875 L 37.054688 55.367188 L 38.492188 55.367188 C 39.800781 55.367188 40.757812 54.425781 40.757812 53.121094 C 40.757812 51.820312 39.804688 50.875 38.492188 50.875 Z M 38.480469 54.953125 L 37.503906 54.953125 L 37.503906 51.300781 L 38.480469 51.300781 C 39.539062 51.300781 40.296875 52.070312 40.296875 53.121094 C 40.296875 54.179688 39.539062 54.953125 38.480469 54.953125 Z M 38.480469 54.953125 " fill-opacity="1" fill-rule="nonzero"/></g><g clip-path="url(#id4)"><path fill="rgb(7.058716%, 11.369324%, 15.689087%)" d="M 42.960938 55.367188 L 43.410156 55.367188 L 43.410156 50.875 L 42.960938 50.875 Z M 42.960938 55.367188 " fill-opacity="1" fill-rule="nonzero"/></g><g clip-path="url(#id5)"><path fill="rgb(7.058716%, 11.369324%, 15.689087%)" d="M 47.6875 53.179688 L 47.6875 53.609375 L 49.601562 53.609375 C 49.457031 54.4375 48.765625 55.003906 47.859375 55.003906 C 46.800781 55.003906 46.066406 54.234375 46.066406 53.128906 C 46.066406 52.039062 46.820312 51.253906 47.859375 51.253906 C 48.671875 51.253906 49.359375 51.734375 49.550781 52.429688 L 50.011719 52.429688 C 49.8125 51.484375 48.921875 50.8125 47.855469 50.8125 C 46.566406 50.8125 45.609375 51.792969 45.609375 53.128906 C 45.609375 54.464844 46.550781 55.441406 47.859375 55.441406 C 49.136719 55.441406 50.050781 54.507812 50.082031 53.179688 Z M 47.6875 53.179688 " fill-opacity="1" fill-rule="nonzero"/></g><g clip-path="url(#id6)"><path fill="rgb(7.058716%, 11.369324%, 15.689087%)" d="M 52.261719 55.367188 L 52.710938 55.367188 L 52.710938 50.875 L 52.261719 50.875 Z M 52.261719 55.367188 " fill-opacity="1" fill-rule="nonzero"/></g><g clip-path="url(#id7)"><path fill="rgb(7.058716%, 11.369324%, 15.689087%)" d="M 57.953125 50.875 L 54.722656 50.875 L 54.722656 51.300781 L 56.113281 51.300781 L 56.113281 55.367188 L 56.5625 55.367188 L 56.5625 51.300781 L 57.953125 51.300781 Z M 57.953125 50.875 " fill-opacity="1" fill-rule="nonzero"/></g><g clip-path="url(#id8)"><path fill="rgb(7.058716%, 11.369324%, 15.689087%)" d="M 62.71875 55.367188 L 63.203125 55.367188 L 61.304688 50.875 L 60.890625 50.875 L 59.039062 55.367188 L 59.519531 55.367188 L 59.992188 54.226562 L 62.238281 54.226562 Z M 61.101562 51.503906 L 62.066406 53.808594 L 60.15625 53.808594 Z M 61.101562 51.503906 " fill-opacity="1" fill-rule="nonzero"/></g><g clip-path="url(#id9)"><path fill="rgb(7.058716%, 11.369324%, 15.689087%)" d="M 65.660156 54.953125 L 65.660156 50.875 L 65.214844 50.875 L 65.214844 55.367188 L 67.699219 55.367188 L 67.699219 54.953125 Z M 65.660156 54.953125 " fill-opacity="1" fill-rule="nonzero"/></g><g clip-path="url(#id10)"><path fill="rgb(7.058716%, 11.369324%, 15.689087%)" d="M 74.425781 55.441406 C 75.464844 55.441406 76.277344 54.824219 76.550781 53.835938 L 76.089844 53.835938 C 75.84375 54.566406 75.222656 54.996094 74.425781 54.996094 C 73.359375 54.996094 72.59375 54.226562 72.59375 53.128906 C 72.59375 52.03125 73.367188 51.246094 74.425781 51.246094 C 75.203125 51.246094 75.808594 51.660156 76.066406 52.34375 L 76.523438 52.34375 C 76.25 51.402344 75.441406 50.8125 74.425781 50.8125 C 73.097656 50.8125 72.140625 51.78125 72.140625 53.128906 C 72.140625 54.46875 73.097656 55.441406 74.425781 55.441406 Z M 74.425781 55.441406 " fill-opacity="1" fill-rule="nonzero"/></g><g clip-path="url(#id11)"><path fill="rgb(7.058716%, 11.369324%, 15.689087%)" d="M 80.667969 55.445312 C 82.023438 55.445312 83 54.449219 83 53.128906 C 83 51.800781 82.023438 50.804688 80.667969 50.804688 C 79.324219 50.804688 78.347656 51.800781 78.347656 53.128906 C 78.347656 54.449219 79.324219 55.445312 80.667969 55.445312 Z M 80.667969 55.003906 C 79.589844 55.003906 78.800781 54.195312 78.800781 53.128906 C 78.800781 52.058594 79.589844 51.246094 80.667969 51.246094 C 81.753906 51.246094 82.546875 52.050781 82.546875 53.128906 C 82.546875 54.199219 81.753906 55.003906 80.667969 55.003906 Z M 80.667969 55.003906 " fill-opacity="1" fill-rule="nonzero"/></g><g clip-path="url(#id12)"><path fill="rgb(7.058716%, 11.369324%, 15.689087%)" d="M 90.320312 55.367188 L 89.566406 50.875 L 89.125 50.875 L 87.574219 54.367188 L 86.023438 50.875 L 85.605469 50.875 L 84.839844 55.367188 L 85.292969 55.367188 L 85.921875 51.679688 L 87.519531 55.226562 L 87.644531 55.226562 L 89.234375 51.679688 L 89.859375 55.367188 Z M 90.320312 55.367188 " fill-opacity="1" fill-rule="nonzero"/></g><g clip-path="url(#id13)"><path fill="rgb(7.058716%, 11.369324%, 15.689087%)" d="M 94.066406 50.875 L 92.496094 50.875 L 92.496094 55.367188 L 92.945312 55.367188 L 92.945312 53.699219 L 94.066406 53.699219 C 94.902344 53.699219 95.523438 53.097656 95.523438 52.289062 C 95.523438 51.480469 94.898438 50.875 94.066406 50.875 Z M 94.046875 53.261719 L 92.945312 53.261719 L 92.945312 51.3125 L 94.046875 51.3125 C 94.636719 51.3125 95.070312 51.730469 95.070312 52.289062 C 95.070312 52.847656 94.636719 53.261719 94.046875 53.261719 Z M 94.046875 53.261719 " fill-opacity="1" fill-rule="nonzero"/></g><g clip-path="url(#id14)"><path fill="rgb(7.058716%, 11.369324%, 15.689087%)" d="M 100.472656 55.367188 L 100.957031 55.367188 L 99.0625 50.875 L 98.648438 50.875 L 96.796875 55.367188 L 97.273438 55.367188 L 97.746094 54.226562 L 99.992188 54.226562 Z M 98.859375 51.503906 L 99.820312 53.808594 L 97.914062 53.808594 Z M 98.859375 51.503906 " fill-opacity="1" fill-rule="nonzero"/></g><g clip-path="url(#id15)"><path fill="rgb(7.058716%, 11.369324%, 15.689087%)" d="M 106.035156 50.875 L 106.035156 54.554688 L 103.371094 50.875 L 102.96875 50.875 L 102.96875 55.367188 L 103.410156 55.367188 L 103.410156 51.671875 L 106.097656 55.367188 L 106.472656 55.367188 L 106.472656 50.875 Z M 106.035156 50.875 " fill-opacity="1" fill-rule="nonzero"/></g><g clip-path="url(#id16)"><path fill="rgb(7.058716%, 11.369324%, 15.689087%)" d="M 112.339844 50.875 L 111.847656 50.875 L 110.4375 53.160156 L 109.035156 50.875 L 108.542969 50.875 L 110.203125 53.585938 L 110.203125 55.367188 L 110.660156 55.367188 L 110.660156 53.585938 Z M 112.339844 50.875 " fill-opacity="1" fill-rule="nonzero"/></g></svg>